<svg width="24" height="24" viewBox="0 0 24 24" fill="none" xmlns="http://www.w3.org/2000/svg">
<path d="M19.5437 16.1625L18.475 14.625C18.3291 14.416 18.2506 14.1674 18.25 13.9125V9.5C18.25 7.8424 17.5915 6.25269 16.4194 5.08058C15.2473 3.90848 13.6576 3.25 12 3.25C10.3424 3.25 8.75268 3.90848 7.58058 5.08058C6.40848 6.25269 5.75 7.8424 5.75 9.5V13.9125C5.7494 14.1674 5.67089 14.416 5.525 14.625L4.45625 16.1625C4.29442 16.3418 4.18801 16.5641 4.14988 16.8026C4.11174 17.0411 4.14352 17.2856 4.24137 17.5064C4.33922 17.7272 4.49895 17.915 4.70124 18.0469C4.90353 18.1789 5.13972 18.2494 5.38125 18.25H8.9375C9.08095 18.9564 9.46421 19.5915 10.0223 20.0477C10.5805 20.5039 11.2792 20.7531 12 20.7531C12.7208 20.7531 13.4195 20.5039 13.9777 20.0477C14.5358 19.5915 14.9191 18.9564 15.0625 18.25H18.6187C18.8603 18.2494 19.0965 18.1789 19.2988 18.0469C19.5011 17.915 19.6608 17.7272 19.7586 17.5064C19.8565 17.2856 19.8883 17.0411 19.8501 16.8026C19.812 16.5641 19.7056 16.3418 19.5437 16.1625ZM12 19.5C11.6132 19.4989 11.2361 19.3782 10.9206 19.1544C10.605 18.9306 10.3664 18.6147 10.2375 18.25H13.7625C13.6336 18.6147 13.395 18.9306 13.0794 19.1544C12.7639 19.3782 12.3868 19.4989 12 19.5ZM5.38125 17C5.4095 16.9738 5.43466 16.9444 5.45625 16.9125L6.55 15.3375C6.84178 14.9195 6.99879 14.4223 7 13.9125V9.5C7 8.17392 7.52678 6.90215 8.46447 5.96447C9.40215 5.02678 10.6739 4.5 12 4.5C13.3261 4.5 14.5979 5.02678 15.5355 5.96447C16.4732 6.90215 17 8.17392 17 9.5V13.9125C17.0012 14.4223 17.1582 14.9195 17.45 15.3375L18.5437 16.9125C18.5653 16.9444 18.5905 16.9738 18.6187 17H5.38125Z" fill="#BCC4BC"/>
</svg>
