<svg width="24" height="24" viewBox="0 0 24 24" fill="none" xmlns="http://www.w3.org/2000/svg">
<path d="M11.9746 11.7436C14.6618 11.7436 16.8464 9.55899 16.8464 6.87181C16.8464 4.18462 14.6618 2 11.9746 2C9.28739 2 7.10277 4.18462 7.10277 6.87181C7.10277 9.55899 9.28739 11.7436 11.9746 11.7436ZM11.9746 3.53847C13.8105 3.53847 15.3079 5.0359 15.3079 6.87181C15.3079 8.70771 13.8105 10.2051 11.9746 10.2051C10.1387 10.2051 8.64124 8.70771 8.64124 6.87181C8.64124 5.0359 10.1387 3.53847 11.9746 3.53847Z" fill="#BCC4BC"/>
<path d="M15.0513 13.282H8.89745C5.64616 13.282 3 15.9281 3 19.1794C3 20.7384 4.26154 22 5.82052 22H18.1282C19.6872 22 20.9488 20.7384 20.9488 19.1794C20.9488 15.9281 18.3026 13.282 15.0513 13.282ZM18.1282 20.4615H5.82052C5.11283 20.4615 4.53847 19.8871 4.53847 19.1794C4.53847 16.7794 6.49744 14.8204 8.89745 14.8204H15.0513C17.4513 14.8204 19.4103 16.7794 19.4103 19.1794C19.4103 19.8871 18.8359 20.4615 18.1282 20.4615Z" fill="#BCC4BC"/>
</svg>
