<svg width="24" height="24" viewBox="0 0 24 24" fill="none" xmlns="http://www.w3.org/2000/svg">
<path d="M9.70826 8.6667H3.45828C2.65414 8.6667 2 8.01256 2 7.20827V3.45828C2 2.65414 2.65414 2 3.45828 2H9.70826C10.5126 2 11.1667 2.65414 11.1667 3.45828V7.20827C11.1667 8.01256 10.5126 8.6667 9.70826 8.6667ZM3.45828 3.25C3.34338 3.25 3.25 3.34338 3.25 3.45828V7.20827C3.25 7.32332 3.34338 7.4167 3.45828 7.4167H9.70826C9.82331 7.4167 9.9167 7.32332 9.9167 7.20827V3.45828C9.9167 3.34338 9.82331 3.25 9.70826 3.25H3.45828Z" fill="#BCC4BC"/>
<path d="M9.70826 21.9999H3.45828C2.65414 21.9999 2 21.3458 2 20.5417V11.7917C2 10.9874 2.65414 10.3333 3.45828 10.3333H9.70826C10.5126 10.3333 11.1667 10.9874 11.1667 11.7917V20.5417C11.1667 21.3458 10.5126 21.9999 9.70826 21.9999ZM3.45828 11.5832C3.34338 11.5832 3.25 11.6766 3.25 11.7917V20.5417C3.25 20.6566 3.34338 20.7499 3.45828 20.7499H9.70826C9.82331 20.7499 9.9167 20.6566 9.9167 20.5417V11.7917C9.9167 11.6766 9.82331 11.5832 9.70826 11.5832H3.45828Z" fill="#BCC4BC"/>
<path d="M20.5417 22H14.2917C13.4874 22 12.8333 21.3458 12.8333 20.5417V16.7917C12.8333 15.9874 13.4874 15.3333 14.2917 15.3333H20.5417C21.3459 15.3333 22 15.9874 22 16.7917V20.5417C22 21.3458 21.3459 22 20.5417 22ZM14.2917 16.5832C14.1767 16.5832 14.0833 16.6766 14.0833 16.7917V20.5417C14.0833 20.6566 14.1767 20.75 14.2917 20.75H20.5417C20.6566 20.75 20.75 20.6566 20.75 20.5417V16.7917C20.75 16.6766 20.6566 16.5832 20.5417 16.5832H14.2917Z" fill="#BCC4BC"/>
<path d="M20.5417 13.6667H14.2917C13.4874 13.6667 12.8333 13.0125 12.8333 12.2083V3.45828C12.8333 2.65414 13.4874 2 14.2917 2H20.5417C21.3459 2 22 2.65414 22 3.45828V12.2083C22 13.0125 21.3459 13.6667 20.5417 13.6667ZM14.2917 3.25C14.1767 3.25 14.0833 3.34338 14.0833 3.45828V12.2083C14.0833 12.3233 14.1767 12.4167 14.2917 12.4167H20.5417C20.6566 12.4167 20.75 12.3233 20.75 12.2083V3.45828C20.75 3.34338 20.6566 3.25 20.5417 3.25H14.2917Z" fill="#BCC4BC"/>
</svg>
