<svg width="24" height="24" viewBox="0 0 24 24" fill="none" xmlns="http://www.w3.org/2000/svg">
<path d="M20.7606 5.72391H13.8825C13.873 5.72391 13.8646 5.71888 13.8607 5.71079L13.1513 4.27188C12.9511 3.86462 12.5284 3.60156 12.0743 3.60156H7.9163C7.25437 3.60156 6.71589 4.1402 6.71589 4.80228V5.97919H5.53852C4.87675 5.97919 4.33826 6.51768 4.33826 7.1796V8.35652H3.16135C2.49942 8.35652 1.96094 8.895 1.96094 9.55693V19.2707C1.96094 19.9326 2.49942 20.4711 3.16135 20.4711H16.0058C16.6677 20.4711 17.2062 19.9326 17.2062 19.2707V18.0936H18.3832C19.0452 18.0936 19.5837 17.5551 19.5837 16.8934V15.7165H20.7606C21.4225 15.7165 21.961 15.178 21.961 14.516V6.92463C21.961 6.26255 21.4225 5.72391 20.7606 5.72391ZM16.0058 19.2946H3.16135C3.14823 19.2946 3.13739 19.284 3.13739 19.2707V9.55693C3.13739 9.54365 3.14823 9.53297 3.16135 9.53297H7.31968C7.32365 9.53297 7.32746 9.53434 7.33082 9.53617C7.33128 9.53648 7.33189 9.53633 7.33235 9.53663C7.33372 9.53755 7.33448 9.53923 7.3357 9.54029C7.33769 9.54228 7.33998 9.54396 7.3412 9.5464L8.05089 10.9858C8.25459 11.3987 8.66719 11.6553 9.12755 11.6553H16.0058C16.009 11.6553 16.0122 11.6559 16.0151 11.6572C16.0236 11.6608 16.0296 11.6694 16.0296 11.6793C16.0296 15.8278 16.0297 19.2328 16.0297 19.2707C16.0297 19.284 16.019 19.2946 16.0058 19.2946ZM18.4072 16.8934C18.4072 16.9065 18.3965 16.9172 18.3834 16.9172H17.2062V11.6793C17.2062 11.0172 16.6675 10.4787 16.0056 10.4787H9.12755C9.1187 10.4787 9.11015 10.4734 9.10618 10.4653L8.39634 9.02592C8.19279 8.61347 7.78035 8.35652 7.31984 8.35652H5.51472V7.1796C5.51472 7.16633 5.5254 7.15565 5.53852 7.15565H9.69701C9.70616 7.15565 9.7144 7.16068 9.71852 7.16923L10.4284 8.60859C10.6322 9.02149 11.0447 9.278 11.5049 9.278H18.3834C18.3965 9.278 18.4072 9.28868 18.4072 9.30195V16.8934ZM20.7845 14.516C20.7845 14.5293 20.7738 14.54 20.7606 14.54H19.5837V9.30195C19.5837 8.64002 19.0453 8.10154 18.3834 8.10154H11.5049C11.4959 8.10154 11.4875 8.0962 11.4834 8.08796L10.7737 6.64905C10.5703 6.23584 10.1577 5.97919 9.69701 5.97919H7.89235V4.80228C7.89235 4.78885 7.90303 4.77802 7.91615 4.77802H12.0742C12.0832 4.77802 12.0916 4.78305 12.0957 4.79145L12.8055 6.23127C13.0092 6.64387 13.4218 6.90037 13.8825 6.90037H20.7606C20.7737 6.90037 20.7844 6.9112 20.7844 6.92478V14.516H20.7845Z" fill="#BCC4BC"/>
<path d="M12.4141 16.7369C12.0893 16.7369 11.8259 17.0003 11.8259 17.3252V17.6653C11.8259 17.9901 12.0893 18.2535 12.4141 18.2535C12.739 18.2535 13.0024 17.9901 13.0024 17.6653V17.3252C13.0024 17.0003 12.739 16.7369 12.4141 16.7369Z" fill="#BCC4BC"/>
<path d="M14.1283 16.7369C13.8035 16.7369 13.5401 17.0003 13.5401 17.3252V17.6653C13.5401 17.9901 13.8035 18.2535 14.1283 18.2535C14.4532 18.2535 14.7165 17.9901 14.7165 17.6653V17.3252C14.7165 17.0003 14.4532 16.7369 14.1283 16.7369Z" fill="#BCC4BC"/>
</svg>
