<svg width="24" height="24" viewBox="0 0 24 24" fill="none" xmlns="http://www.w3.org/2000/svg">
<g clip-path="url(#clip0_100_2946)">
<path d="M22 6.73389V14.2986C22 14.6234 21.7366 14.8868 21.4118 14.8868H20.5019V8.92062C20.5019 8.21536 19.9303 7.64377 19.225 7.64377H11.487C11.4487 7.64377 11.4138 7.6221 11.3968 7.58762L10.5985 5.96835C10.3815 5.52875 9.94281 5.25623 9.453 5.25623H7.34897V4.34604C7.34897 4.02118 7.61234 3.75781 7.93719 3.75781H12.1274C12.1663 3.75781 12.2008 3.77933 12.2176 3.81396L13.0161 5.43353C13.2329 5.87268 13.6718 6.14566 14.1616 6.14566H21.4118C21.7366 6.14566 22 6.40903 22 6.73389Z" fill="#B3E329"/>
<path d="M19.3254 8.92056V16.9731C19.3254 17.2979 19.0621 17.5613 18.7372 17.5613H17.8275V11.595C17.8275 10.8899 17.2557 10.3181 16.5506 10.3181H8.81259C8.77414 10.3181 8.7392 10.2966 8.72241 10.2621L7.92392 8.64285C7.70358 8.19653 7.26077 7.93073 6.77844 7.93073H4.67456V7.02084C4.67456 6.69598 4.93793 6.43262 5.26279 6.43262H9.453C9.49176 6.43262 9.52625 6.45383 9.54318 6.48831L10.3415 8.10788C10.5585 8.54718 10.9972 8.82016 11.487 8.82016H19.225C19.2803 8.82016 19.3254 8.86533 19.3254 8.92056Z" fill="#B3E329"/>
<path d="M16.5506 11.4946H8.81259C8.32278 11.4946 7.88394 11.2217 7.66711 10.7824C7.26474 9.96594 7.44189 10.326 6.86862 9.16318C6.85184 9.12839 6.8172 9.10718 6.77844 9.10718H2.58823C2.26337 9.10718 2 9.37054 2 9.6954V19.6479C2 19.9728 2.26337 20.2362 2.58823 20.2362H16.0628C16.3877 20.2362 16.651 19.9728 16.651 19.6479V11.595C16.651 11.5397 16.6059 11.4946 16.5506 11.4946ZM13.098 18.3296C13.098 18.6558 12.8322 18.9178 12.5098 18.9178C12.1878 18.9178 11.9216 18.6561 11.9216 18.3296C11.9216 18.1151 11.9216 18.1608 11.9216 17.9467C11.9216 17.6236 12.1839 17.3585 12.5098 17.3585C12.8353 17.3585 13.098 17.6236 13.098 17.9467V18.3296ZM15.0267 18.3296C15.0267 18.6558 14.7608 18.9178 14.4385 18.9178C14.1146 18.9178 13.8501 18.6551 13.8501 18.3296C13.8501 18.1151 13.8501 18.1608 13.8501 17.9467C13.8501 17.6233 14.1126 17.3585 14.4385 17.3585C14.764 17.3585 15.0267 17.6236 15.0267 17.9467V18.3296Z" fill="#B3E329"/>
</g>
<defs>
<clipPath id="clip0_100_2946">
<rect width="20" height="20" fill="white" transform="translate(2 2)"/>
</clipPath>
</defs>
</svg>
