<svg width="24" height="24" viewBox="0 0 24 24" fill="none" xmlns="http://www.w3.org/2000/svg">
<path d="M11.9999 10.8213C12.777 10.8213 13.5366 10.5909 14.1828 10.1591C14.8289 9.72739 15.3325 9.11375 15.6299 8.3958C15.9273 7.67786 16.0051 6.88785 15.8535 6.12569C15.7019 5.36352 15.3277 4.66343 14.7782 4.11394C14.2287 3.56445 13.5286 3.19024 12.7664 3.03863C12.0043 2.88703 11.2143 2.96484 10.4963 3.26222C9.77836 3.5596 9.16472 4.0632 8.73299 4.70933C8.30126 5.35547 8.07082 6.11511 8.07082 6.89221C8.07082 7.93427 8.48478 8.93364 9.22162 9.67049C9.95847 10.4073 10.9578 10.8213 11.9999 10.8213ZM11.9999 4.53477C12.4662 4.53477 12.9219 4.67303 13.3096 4.93207C13.6973 5.19111 13.9995 5.55929 14.1779 5.99006C14.3563 6.42082 14.403 6.89483 14.312 7.35213C14.2211 7.80943 13.9966 8.22948 13.6669 8.55918C13.3372 8.88887 12.9171 9.1134 12.4598 9.20436C12.0025 9.29532 11.5285 9.24864 11.0977 9.07021C10.667 8.89178 10.2988 8.58962 10.0398 8.20194C9.78071 7.81426 9.64245 7.35847 9.64245 6.89221C9.64245 6.26698 9.89083 5.66735 10.3329 5.22525C10.775 4.78314 11.3747 4.53477 11.9999 4.53477ZM22.9306 18.4908C22.651 17.2434 21.967 16.1233 20.985 15.3047C20.003 14.4862 18.778 14.015 17.5006 13.9646C17.16 13.9701 16.8207 14.0069 16.4869 14.0746C15.2356 13.0037 13.6468 12.4083 11.9999 12.3929C10.353 12.4083 8.76423 13.0037 7.51289 14.0746C7.17908 14.0069 6.83975 13.9701 6.49919 13.9646C5.22177 14.015 3.99682 14.4862 3.01483 15.3047C2.03284 16.1233 1.34884 17.2434 1.06921 18.4908C0.987748 18.8023 0.977955 19.1281 1.04056 19.4439C1.10317 19.7597 1.23656 20.0571 1.43068 20.3139C1.59907 20.5365 1.81628 20.7174 2.0656 20.8427C2.31492 20.968 2.58968 21.0345 2.86873 21.0369H21.1311C21.4101 21.0345 21.6849 20.968 21.9342 20.8427C22.1835 20.7174 22.4007 20.5365 22.5691 20.3139C22.7632 20.0571 22.8966 19.7597 22.9592 19.4439C23.0218 19.1281 23.012 18.8023 22.9306 18.4908ZM2.67227 19.3474C2.62267 19.2821 2.58785 19.2069 2.57021 19.1268C2.55257 19.0467 2.55254 18.9638 2.57012 18.8838C2.7595 18.0323 3.20391 17.2588 3.84411 16.6663C4.4843 16.0738 5.28987 15.6906 6.15343 15.5676C5.62765 16.3166 5.23673 17.1516 4.99829 18.0351C4.87444 18.5067 4.89359 19.0045 5.05329 19.4653H2.86873C2.82929 19.4614 2.7912 19.4488 2.75722 19.4284C2.72325 19.4081 2.69423 19.3804 2.67227 19.3474ZM13.8701 19.4653H7.15928C7.06357 19.4625 6.96979 19.4377 6.88527 19.3927C6.80075 19.3477 6.72778 19.2838 6.67207 19.2059C6.58764 19.0957 6.53076 18.9668 6.50616 18.8302C6.48155 18.6935 6.48994 18.5529 6.53062 18.4201C6.82975 17.1738 7.53015 16.0603 8.52404 15.251C9.51793 14.4417 10.7502 13.9814 12.0313 13.941C13.3124 13.9814 14.5447 14.4417 15.5386 15.251C16.5325 16.0603 17.2329 17.1738 17.532 18.4201C17.5727 18.5529 17.5811 18.6935 17.5565 18.8302C17.5319 18.9668 17.475 19.0957 17.3906 19.2059C17.3349 19.2838 17.2619 19.3477 17.1774 19.3927C17.0929 19.4377 16.9991 19.4625 16.9034 19.4653H13.8701ZM21.3275 19.3474C21.3056 19.3804 21.2766 19.4081 21.2426 19.4284C21.2086 19.4488 21.1705 19.4614 21.1311 19.4653H18.9308C19.0905 19.0045 19.1096 18.5067 18.9858 18.0351C18.7474 17.1516 18.3564 16.3166 17.8306 15.5676C18.697 15.6876 19.5061 16.0696 20.1493 16.6622C20.7926 17.2549 21.2393 18.0301 21.4297 18.8838C21.4473 18.9638 21.4472 19.0467 21.4296 19.1268C21.4119 19.2069 21.3771 19.2821 21.3275 19.3474ZM18.2864 13.1787C18.7527 13.1787 19.2085 13.0405 19.5961 12.7814C19.9838 12.5224 20.286 12.1542 20.4644 11.7234C20.6428 11.2927 20.6895 10.8187 20.5986 10.3614C20.5076 9.90407 20.2831 9.48402 19.9534 9.15432C19.6237 8.82463 19.2036 8.6001 18.7463 8.50914C18.289 8.41818 17.815 8.46486 17.3843 8.64329C16.9535 8.82172 16.5853 9.12388 16.3263 9.51156C16.0672 9.89924 15.929 10.355 15.929 10.8213C15.929 11.4465 16.1773 12.0461 16.6195 12.4883C17.0616 12.9304 17.6612 13.1787 18.2864 13.1787ZM18.2864 10.0355C18.4418 10.0355 18.5938 10.0816 18.723 10.1679C18.8522 10.2543 18.9529 10.377 19.0124 10.5206C19.0719 10.6642 19.0875 10.8222 19.0571 10.9746C19.0268 11.127 18.952 11.267 18.8421 11.3769C18.7322 11.4868 18.5922 11.5617 18.4397 11.592C18.2873 11.6223 18.1293 11.6068 17.9857 11.5473C17.8421 11.4878 17.7194 11.3871 17.633 11.2579C17.5467 11.1286 17.5006 10.9767 17.5006 10.8213C17.5006 10.6129 17.5834 10.413 17.7308 10.2656C17.8781 10.1183 18.078 10.0355 18.2864 10.0355ZM5.71338 13.1787C6.17964 13.1787 6.63542 13.0405 7.0231 12.7814C7.41078 12.5224 7.71294 12.1542 7.89137 11.7234C8.0698 11.2927 8.11649 10.8187 8.02553 10.3614C7.93456 9.90407 7.71004 9.48402 7.38034 9.15432C7.05065 8.82463 6.63059 8.6001 6.17329 8.50914C5.71599 8.41818 5.24199 8.46486 4.81122 8.64329C4.38045 8.82172 4.01227 9.12388 3.75323 9.51156C3.49419 9.89924 3.35593 10.355 3.35593 10.8213C3.35593 11.4465 3.6043 12.0461 4.04641 12.4883C4.48852 12.9304 5.08814 13.1787 5.71338 13.1787ZM5.71338 10.0355C5.8688 10.0355 6.02073 10.0816 6.14995 10.1679C6.27918 10.2543 6.3799 10.377 6.43938 10.5206C6.49885 10.6642 6.51441 10.8222 6.48409 10.9746C6.45377 11.127 6.37893 11.267 6.26903 11.3769C6.15913 11.4868 6.01911 11.5617 5.86668 11.592C5.71425 11.6223 5.55625 11.6068 5.41266 11.5473C5.26907 11.4878 5.14634 11.3871 5.06 11.2579C4.97365 11.1286 4.92756 10.9767 4.92756 10.8213C4.92756 10.6129 5.01035 10.413 5.15772 10.2656C5.30509 10.1183 5.50497 10.0355 5.71338 10.0355Z" fill="#BCC4BC"/>
</svg>
