<svg width="24" height="24" viewBox="0 0 24 24" fill="none" xmlns="http://www.w3.org/2000/svg">
<path d="M12 10.8213C12.7771 10.8213 13.5368 10.5909 14.1829 10.1591C14.829 9.72739 15.3326 9.11375 15.63 8.3958C15.9274 7.67786 16.0052 6.88785 15.8536 6.12569C15.702 5.36352 15.3278 4.66343 14.7783 4.11394C14.2288 3.56445 13.5287 3.19024 12.7665 3.03863C12.0044 2.88703 11.2144 2.96484 10.4964 3.26222C9.77848 3.5596 9.16484 4.0632 8.73311 4.70933C8.30138 5.35547 8.07094 6.11511 8.07094 6.89221C8.07094 7.93427 8.48489 8.93364 9.22174 9.67049C9.95858 10.4073 10.958 10.8213 12 10.8213ZM12 4.53477C12.4663 4.53477 12.9221 4.67303 13.3097 4.93207C13.6974 5.19111 13.9996 5.55929 14.178 5.99006C14.3564 6.42082 14.4031 6.89483 14.3122 7.35213C14.2212 7.80943 13.9967 8.22948 13.667 8.55918C13.3373 8.88887 12.9172 9.1134 12.4599 9.20436C12.0026 9.29532 11.5286 9.24864 11.0979 9.07021C10.6671 8.89178 10.2989 8.58962 10.0399 8.20194C9.78083 7.81426 9.64257 7.35847 9.64257 6.89221C9.64257 6.26698 9.89094 5.66735 10.333 5.22525C10.7752 4.78314 11.3748 4.53477 12 4.53477ZM22.9307 18.4908C22.6511 17.2434 21.9671 16.1233 20.9851 15.3047C20.0031 14.4862 18.7781 14.015 17.5007 13.9646C17.1602 13.9701 16.8208 14.0069 16.487 14.0746C15.2357 13.0037 13.6469 12.4083 12 12.3929C10.3531 12.4083 8.76434 13.0037 7.51301 14.0746C7.1792 14.0069 6.83987 13.9701 6.49931 13.9646C5.22189 14.015 3.99694 14.4862 3.01494 15.3047C2.03295 16.1233 1.34896 17.2434 1.06933 18.4908C0.987865 18.8023 0.978071 19.1281 1.04068 19.4439C1.10329 19.7597 1.23667 20.0571 1.4308 20.3139C1.59918 20.5365 1.8164 20.7174 2.06572 20.8427C2.31504 20.968 2.5898 21.0345 2.86884 21.0369H21.1312C21.4102 21.0345 21.685 20.968 21.9343 20.8427C22.1836 20.7174 22.4008 20.5365 22.5692 20.3139C22.7634 20.0571 22.8967 19.7597 22.9594 19.4439C23.022 19.1281 23.0122 18.8023 22.9307 18.4908ZM2.67239 19.3474C2.62279 19.2821 2.58797 19.2069 2.57033 19.1268C2.55269 19.0467 2.55266 18.9638 2.57023 18.8838C2.75962 18.0323 3.20403 17.2588 3.84423 16.6663C4.48442 16.0738 5.28999 15.6906 6.15355 15.5676C5.62777 16.3166 5.23685 17.1516 4.9984 18.0351C4.87456 18.5067 4.89371 19.0045 5.05341 19.4653H2.86884C2.82941 19.4614 2.79132 19.4488 2.75734 19.4284C2.72336 19.4081 2.69434 19.3804 2.67239 19.3474ZM13.8703 19.4653H7.15939C7.06369 19.4625 6.96991 19.4377 6.88539 19.3927C6.80087 19.3477 6.7279 19.2838 6.67219 19.2059C6.58776 19.0957 6.53087 18.9668 6.50627 18.8302C6.48167 18.6935 6.49006 18.5529 6.53074 18.4201C6.82986 17.1738 7.53026 16.0603 8.52416 15.251C9.51805 14.4417 10.7504 13.9814 12.0314 13.941C13.3125 13.9814 14.5448 14.4417 15.5387 15.251C16.5326 16.0603 17.233 17.1738 17.5322 18.4201C17.5728 18.5529 17.5812 18.6935 17.5566 18.8302C17.532 18.9668 17.4751 19.0957 17.3907 19.2059C17.335 19.2838 17.262 19.3477 17.1775 19.3927C17.093 19.4377 16.9992 19.4625 16.9035 19.4653H13.8703ZM21.3276 19.3474C21.3057 19.3804 21.2767 19.4081 21.2427 19.4284C21.2087 19.4488 21.1706 19.4614 21.1312 19.4653H18.9309C19.0906 19.0045 19.1098 18.5067 18.9859 18.0351C18.7475 17.1516 18.3565 16.3166 17.8308 15.5676C18.6972 15.6876 19.5062 16.0696 20.1494 16.6622C20.7927 17.2549 21.2394 18.0301 21.4298 18.8838C21.4474 18.9638 21.4473 19.0467 21.4297 19.1268C21.4121 19.2069 21.3772 19.2821 21.3276 19.3474ZM18.2865 13.1787C18.7528 13.1787 19.2086 13.0405 19.5963 12.7814C19.9839 12.5224 20.2861 12.1542 20.4645 11.7234C20.643 11.2927 20.6896 10.8187 20.5987 10.3614C20.5077 9.90407 20.2832 9.48402 19.9535 9.15432C19.6238 8.82463 19.2038 8.6001 18.7465 8.50914C18.2892 8.41818 17.8151 8.46486 17.3844 8.64329C16.9536 8.82172 16.5854 9.12388 16.3264 9.51156C16.0674 9.89924 15.9291 10.355 15.9291 10.8213C15.9291 11.4465 16.1775 12.0461 16.6196 12.4883C17.0617 12.9304 17.6613 13.1787 18.2865 13.1787ZM18.2865 10.0355C18.442 10.0355 18.5939 10.0816 18.7231 10.1679C18.8523 10.2543 18.9531 10.377 19.0125 10.5206C19.072 10.6642 19.0876 10.8222 19.0573 10.9746C19.0269 11.127 18.9521 11.267 18.8422 11.3769C18.7323 11.4868 18.5923 11.5617 18.4398 11.592C18.2874 11.6223 18.1294 11.6068 17.9858 11.5473C17.8422 11.4878 17.7195 11.3871 17.6332 11.2579C17.5468 11.1286 17.5007 10.9767 17.5007 10.8213C17.5007 10.6129 17.5835 10.413 17.7309 10.2656C17.8783 10.1183 18.0781 10.0355 18.2865 10.0355ZM5.71349 13.1787C6.17975 13.1787 6.63554 13.0405 7.02322 12.7814C7.4109 12.5224 7.71306 12.1542 7.89149 11.7234C8.06992 11.2927 8.1166 10.8187 8.02564 10.3614C7.93468 9.90407 7.71015 9.48402 7.38046 9.15432C7.05076 8.82463 6.63071 8.6001 6.17341 8.50914C5.71611 8.41818 5.2421 8.46486 4.81134 8.64329C4.38057 8.82172 4.01239 9.12388 3.75335 9.51156C3.49431 9.89924 3.35605 10.355 3.35605 10.8213C3.35605 11.4465 3.60442 12.0461 4.04653 12.4883C4.48863 12.9304 5.08826 13.1787 5.71349 13.1787ZM5.71349 10.0355C5.86891 10.0355 6.02084 10.0816 6.15007 10.1679C6.2793 10.2543 6.38002 10.377 6.43949 10.5206C6.49897 10.6642 6.51453 10.8222 6.48421 10.9746C6.45389 11.127 6.37905 11.267 6.26915 11.3769C6.15925 11.4868 6.01923 11.5617 5.8668 11.592C5.71437 11.6223 5.55636 11.6068 5.41278 11.5473C5.26919 11.4878 5.14646 11.3871 5.06011 11.2579C4.97377 11.1286 4.92768 10.9767 4.92768 10.8213C4.92768 10.6129 5.01047 10.413 5.15784 10.2656C5.30521 10.1183 5.50508 10.0355 5.71349 10.0355Z" fill="#B3E329"/>
<ellipse cx="11.8328" cy="6.72627" rx="3.25575" ry="2.58357" fill="#B3E329"/>
<path d="M16.1656 15.1631C16.1656 15.1631 17.9627 17.5009 18.056 19.2607C18.203 22.0309 5.8975 20.1016 5.8975 20.1016L5.89741 18.674C5.89741 18.674 6.00802 15.6345 8.14732 15.1631C8.91465 14.994 9.71188 14.1106 9.71188 14.1106L12.2078 13.2426L14.5359 14.1106L16.1656 15.1631Z" fill="#B3E329"/>
</svg>
