<svg width="24" height="24" viewBox="0 0 24 24" fill="none" xmlns="http://www.w3.org/2000/svg">
<path d="M21.3442 8.88535C20.9989 8.26375 20.2151 8.03976 19.5935 8.38511L17.5507 9.52L15.2879 6.05925C15.0358 5.67374 14.6122 5.46815 14.1833 5.47671C14.178 5.47663 8.80261 5.47632 8.80261 5.47632C8.33332 5.47632 7.90121 5.73167 7.6748 6.14273L6.04394 9.10406C5.70089 9.72695 5.92776 10.51 6.55062 10.853C6.74757 10.9614 6.96054 11.0129 7.17058 11.0129C7.62468 11.0129 8.06499 10.7722 8.29953 10.3463L9.5634 8.05136H11.995L8.28246 14.532H3.78119C3.0701 14.532 2.49365 15.1084 2.49365 15.8195C2.49365 16.5306 3.0701 17.1071 3.78119 17.1071H9.01718C9.47254 17.1071 9.89402 16.8665 10.1257 16.4745L11.0505 14.9094L13.3856 16.7491L11.9856 20.232C11.7204 20.8917 12.0402 21.6416 12.7 21.9068C12.8575 21.9701 13.0199 22 13.1798 22C13.69 22 14.1729 21.6948 14.3749 21.1923L16.1345 16.8147C16.3477 16.2844 16.1857 15.6769 15.7367 15.3232L13.1477 13.2833L14.9377 10.2292L16.051 11.9319C16.2969 12.3079 16.708 12.515 17.1296 12.515C17.3417 12.515 17.5564 12.4625 17.754 12.3528L20.8441 10.6361C21.4656 10.2908 21.6896 9.50695 21.3442 8.88535Z" fill="#B3E329"/>
<path d="M16.0843 6.29181C17.2694 6.29181 18.2302 5.33105 18.2302 4.1459C18.2302 2.96075 17.2694 2 16.0843 2C14.8991 2 13.9384 2.96075 13.9384 4.1459C13.9384 5.33105 14.8991 6.29181 16.0843 6.29181Z" fill="#B3E329"/>
<path d="M21.3442 8.88531C20.9989 8.26371 20.215 8.03972 19.5934 8.38507L17.5506 9.51996L15.2879 6.05921C15.2804 6.04784 15.2724 6.03718 15.2646 6.02612L8.9166 17.107H9.01715C9.4725 17.107 9.89399 16.8665 10.1256 16.4745L11.0505 14.9093L13.3855 16.7491L11.9856 20.232C11.7204 20.8917 12.0402 21.6416 12.7 21.9068C12.8574 21.9701 13.0199 22 13.1798 22C13.69 22 14.1729 21.6948 14.3748 21.1923L16.1344 16.8147C16.3476 16.2844 16.1856 15.6769 15.7367 15.3232L13.1476 13.2833L14.9377 10.2292L16.051 11.9319C16.2969 12.3079 16.708 12.515 17.1296 12.515C17.3416 12.515 17.5564 12.4625 17.7539 12.3528L20.844 10.6361C21.4656 10.2908 21.6896 9.50691 21.3442 8.88531Z" fill="#B3E329"/>
<path d="M17.3388 2.40552L15.2173 6.10889C15.4825 6.22623 15.7757 6.29189 16.0843 6.29189C17.2695 6.29189 18.2302 5.33115 18.2302 4.14599C18.2302 3.42935 17.8786 2.79525 17.3388 2.40552Z" fill="#B3E329"/>
</svg>
