<svg width="24" height="24" viewBox="0 0 24 24" fill="none" xmlns="http://www.w3.org/2000/svg">
<path d="M20.8442 8.78327C20.6109 8.36343 20.2282 8.05956 19.7664 7.92761C19.3046 7.79569 18.819 7.85147 18.3992 8.08471L16.9527 8.88831L15.8308 7.17237C17.0537 6.95827 17.9864 5.88941 17.9864 4.60605C17.9864 3.16906 16.8173 2 15.3803 2C13.9433 2 12.7742 3.16906 12.7742 4.60609C12.7742 4.83656 12.8047 5.05999 12.8611 5.27296C12.1971 5.27288 10.9335 5.27281 8.52519 5.27265C7.86984 5.27265 7.26636 5.62925 6.95019 6.20327L5.41488 8.99112C5.1832 9.41178 5.12926 9.89752 5.26285 10.3588C5.39652 10.8201 5.7018 11.2018 6.12242 11.4333C6.38761 11.5795 6.68722 11.6567 6.98879 11.6567C7.64472 11.6567 8.24859 11.3 8.56484 10.7258L9.58761 8.86866H10.5196L7.69589 13.7977H3.79809C2.80668 13.7977 2.00004 14.6043 2.00004 15.5957C2.00004 16.5872 2.80664 17.3938 3.79809 17.3938H8.72726C9.36015 17.3938 9.95327 17.0553 10.2752 16.5104L10.8051 15.6137L12.1323 16.6595L10.978 19.5311C10.7989 19.9767 10.8041 20.4654 10.9925 20.9072C11.1809 21.3489 11.5301 21.6908 11.9758 21.87C12.1905 21.9563 12.416 22 12.6459 22C13.3843 22 14.0393 21.5573 14.3146 20.8722L15.9712 16.7511C16.2669 16.0154 16.0385 15.159 15.4156 14.6683L13.3794 13.0639L14.3281 11.4453L14.8586 12.2566C15.192 12.7664 15.7549 13.0708 16.3644 13.0708C16.6683 13.0708 16.9699 12.9924 17.2366 12.8443L20.1457 11.2282C21.0123 10.7467 21.3256 9.64987 20.8442 8.78327ZM16.8145 4.60609C16.8145 5.39695 16.1712 6.0403 15.3804 6.0403C14.5895 6.0403 13.9462 5.39695 13.9462 4.60609C13.9462 3.81523 14.5895 3.17187 15.3803 3.17187C16.1712 3.17187 16.8145 3.81523 16.8145 4.60609ZM19.5766 10.2038L16.6676 11.8199C16.5745 11.8715 16.4697 11.8988 16.3644 11.8988C16.1518 11.8988 15.9555 11.7928 15.8394 11.6152L14.7913 10.0122C14.6803 9.84245 14.4896 9.74049 14.2865 9.74713C14.0837 9.75209 13.8979 9.86159 13.7953 10.0366L12.1101 12.9117C11.9622 13.1642 12.0232 13.4871 12.253 13.6683L14.6904 15.5886C14.9073 15.7595 14.9869 16.0577 14.8838 16.3139L13.2273 20.4351C13.1314 20.6738 12.9032 20.828 12.6459 20.828C12.5664 20.828 12.4879 20.8126 12.4128 20.7825C12.2576 20.7201 12.136 20.601 12.0704 20.4472C12.0047 20.2934 12.003 20.1232 12.0653 19.968L13.3833 16.6892C13.4803 16.4478 13.4066 16.1714 13.2023 16.0104L11.004 14.2785C10.8999 14.1964 10.7719 14.1528 10.6414 14.1528C10.6055 14.1528 10.5695 14.1561 10.5337 14.1628C10.3675 14.1938 10.2229 14.2952 10.1369 14.4406L9.26628 15.9141C9.15417 16.1038 8.94761 16.2217 8.72718 16.2217H3.79809C3.45282 16.2217 3.17192 15.9408 3.17192 15.5956C3.17192 15.2503 3.45282 14.9694 3.79809 14.9694H8.03558C8.24562 14.9694 8.4396 14.857 8.54398 14.6747L12.039 8.57385C12.1429 8.39253 12.1423 8.1696 12.0375 7.98882C11.9327 7.808 11.7396 7.69671 11.5306 7.69671H9.24144C9.02784 7.69671 8.8312 7.81292 8.72824 7.99999L7.53843 10.1605C7.42824 10.3605 7.21765 10.4848 6.98886 10.4848C6.883 10.4848 6.78175 10.4586 6.68785 10.4069C6.54136 10.3262 6.43504 10.1933 6.38851 10.0326C6.34199 9.87202 6.36078 9.70284 6.44144 9.55635L7.97675 6.76855C8.08683 6.56862 8.29699 6.44444 8.52519 6.44444C8.57249 6.44444 12.9967 6.44472 13.5355 6.4448C13.756 6.66601 14.0162 6.84733 14.3039 6.97843L16.2703 9.98584C16.4385 10.243 16.7768 10.3265 17.0453 10.1774L18.9684 9.10897C19.1145 9.02772 19.2836 9.00831 19.4445 9.05428C19.6052 9.10026 19.7386 9.20608 19.8198 9.35225C19.9875 9.65413 19.8783 10.0361 19.5766 10.2038Z" fill="#BCC4BC"/>
</svg>
