<svg width="24" height="24" viewBox="0 0 24 24" fill="none" xmlns="http://www.w3.org/2000/svg">
<path d="M9.33125 11.3313C9.15389 11.3313 8.98379 11.2608 8.85837 11.1354C8.73296 11.01 8.6625 10.8399 8.6625 10.6625V8.66252C8.65349 8.56969 8.664 8.47601 8.69336 8.38748C8.72271 8.29895 8.77026 8.21754 8.83294 8.14848C8.89563 8.07942 8.97206 8.02424 9.05734 7.98647C9.14262 7.94871 9.23486 7.9292 9.32812 7.9292C9.42139 7.9292 9.51363 7.94871 9.59891 7.98647C9.68418 8.02424 9.76062 8.07942 9.82331 8.14848C9.88599 8.21754 9.93354 8.29895 9.96289 8.38748C9.99224 8.47601 10.0028 8.56969 9.99375 8.66252V10.6625C9.99376 10.8388 9.92416 11.008 9.80009 11.1332C9.67603 11.2584 9.50753 11.3296 9.33125 11.3313Z" fill="#BCC4BC"/>
<path d="M12 11.3313C11.8226 11.3313 11.6525 11.2608 11.5271 11.1354C11.4017 11.01 11.3312 10.8399 11.3312 10.6625V8.00005C11.3473 7.83464 11.4244 7.68113 11.5474 7.56944C11.6705 7.45775 11.8307 7.39587 11.9969 7.39587C12.1631 7.39587 12.3233 7.45775 12.4463 7.56944C12.5694 7.68113 12.6465 7.83464 12.6625 8.00005V10.6688C12.6609 10.844 12.5905 11.0116 12.4667 11.1355C12.3428 11.2593 12.1752 11.3297 12 11.3313Z" fill="#BCC4BC"/>
<path d="M14.6688 11.3312C14.4914 11.3312 14.3213 11.2608 14.1959 11.1354C14.0705 11.01 14 10.8399 14 10.6625V6.66875C13.991 6.57592 14.0015 6.48223 14.0309 6.3937C14.0602 6.30518 14.1078 6.22377 14.1704 6.15471C14.2331 6.08565 14.3096 6.03046 14.3948 5.9927C14.4801 5.95493 14.5724 5.93542 14.6656 5.93542C14.7589 5.93542 14.8511 5.95493 14.9364 5.9927C15.0217 6.03046 15.0981 6.08565 15.1608 6.15471C15.2235 6.22377 15.271 6.30518 15.3004 6.3937C15.3297 6.48223 15.3403 6.57592 15.3313 6.66875V10.6687C15.3296 10.844 15.2593 11.0115 15.1354 11.1354C15.0115 11.2593 14.844 11.3296 14.6688 11.3312Z" fill="#BCC4BC"/>
<path d="M17.3313 22H6.66875C5.96095 22 5.28215 21.7188 4.78166 21.2183C4.28117 20.7179 4 20.039 4 19.3312V7.25C3.99924 6.7609 4.10639 6.27767 4.31382 5.83473C4.52124 5.3918 4.82382 5.00008 5.2 4.6875L7.5 2.775C8.09845 2.27629 8.85225 2.00218 9.63125 2L17.3313 2C18.039 2 18.7179 2.28117 19.2183 2.78166C19.7188 3.28215 20 3.96095 20 4.66875V19.3312C20 20.039 19.7188 20.7179 19.2183 21.2183C18.7179 21.7188 18.039 22 17.3313 22ZM9.63125 3.33125C9.17405 3.33847 8.73304 3.50164 8.38125 3.79375L6.05 5.7125C5.82446 5.90011 5.6431 6.13518 5.51886 6.40095C5.39461 6.66672 5.33056 6.95663 5.33125 7.25V19.3312C5.33289 19.6838 5.47368 20.0215 5.72298 20.2708C5.97228 20.5201 6.30994 20.6609 6.6625 20.6625H17.3313C17.6838 20.6609 18.0215 20.5201 18.2708 20.2708C18.5201 20.0215 18.6609 19.6838 18.6625 19.3312V4.66875C18.6609 4.31619 18.5201 3.97853 18.2708 3.72923C18.0215 3.47993 17.6838 3.33914 17.3313 3.3375L9.63125 3.33125Z" fill="#BCC4BC"/>
<path d="M16 18H8C7.90717 18.009 7.81348 17.9985 7.72495 17.9692C7.63643 17.9398 7.55502 17.8923 7.48596 17.8296C7.4169 17.7669 7.36171 17.6905 7.32395 17.6052C7.28618 17.5199 7.26668 17.4277 7.26668 17.3344C7.26668 17.2411 7.28618 17.1489 7.32395 17.0636C7.36171 16.9783 7.4169 16.9019 7.48596 16.8392C7.55502 16.7765 7.63643 16.729 7.72495 16.6996C7.81348 16.6703 7.90717 16.6598 8 16.6688H16C16.0928 16.6598 16.1865 16.6703 16.275 16.6996C16.3636 16.729 16.445 16.7765 16.514 16.8392C16.5831 16.9019 16.6383 16.9783 16.6761 17.0636C16.7138 17.1489 16.7333 17.2411 16.7333 17.3344C16.7333 17.4277 16.7138 17.5199 16.6761 17.6052C16.6383 17.6905 16.5831 17.7669 16.514 17.8296C16.445 17.8923 16.3636 17.9398 16.275 17.9692C16.1865 17.9985 16.0928 18.009 16 18Z" fill="#BCC4BC"/>
<path d="M16 14.6687H8C7.83459 14.6527 7.68108 14.5756 7.56939 14.4526C7.4577 14.3295 7.39582 14.1693 7.39582 14.0031C7.39582 13.8369 7.4577 13.6767 7.56939 13.5536C7.68108 13.4306 7.83459 13.3535 8 13.3375H16C16.0928 13.3285 16.1865 13.339 16.275 13.3683C16.3636 13.3977 16.445 13.4452 16.514 13.5079C16.5831 13.5706 16.6383 13.647 16.6761 13.7323C16.7138 13.8176 16.7333 13.9098 16.7333 14.0031C16.7333 14.0964 16.7138 14.1886 16.6761 14.2739C16.6383 14.3592 16.5831 14.4356 16.514 14.4983C16.445 14.561 16.3636 14.6085 16.275 14.6379C16.1865 14.6672 16.0928 14.6777 16 14.6687Z" fill="#BCC4BC"/>
</svg>
