<svg width="24" height="24" viewBox="0 0 24 24" fill="none" xmlns="http://www.w3.org/2000/svg">
<path d="M17.9284 2.19974C17.7723 2.02026 17.6228 2.00179 17.6038 2H5.69761C5.67864 2.00179 5.52915 2.02051 5.37299 2.19974C5.15222 2.45333 4.9094 3.02846 5.00863 4.32796C5.09145 5.41642 5.40376 6.82155 5.93658 8.50438C6.01787 8.76079 6.10248 9.0113 6.18838 9.24951C7.01838 11.5572 8.13531 13.307 9.50813 14.4506C9.81178 14.7053 10.1379 14.9319 10.4825 15.1277L10.4987 15.137C11.0394 15.439 11.4574 15.5577 11.6502 15.6006C11.8433 15.5577 12.2617 15.4388 12.804 15.1357L12.8181 15.1277C13.1626 14.9317 13.4887 14.7049 13.7925 14.4503C15.1661 13.3077 16.283 11.5577 17.1123 9.25002C17.1982 9.01182 17.2828 8.76105 17.3641 8.50489C17.8976 6.82207 18.2097 5.41719 18.2917 4.32847C18.392 3.02846 18.1492 2.45333 17.9284 2.19974ZM14.3517 6.25104L13.0205 7.54873C13.0184 7.55069 13.0169 7.55312 13.0161 7.55581C13.0152 7.5585 13.015 7.56135 13.0156 7.56412L13.3297 9.39643C13.3303 9.39969 13.33 9.40306 13.3287 9.40614C13.3275 9.40922 13.3254 9.41189 13.3227 9.41383C13.32 9.41576 13.3169 9.41689 13.3135 9.41708C13.3102 9.41727 13.3069 9.41651 13.304 9.41489L11.6587 8.54976C11.6561 8.5485 11.6533 8.54784 11.6504 8.54784C11.6476 8.54784 11.6448 8.5485 11.6422 8.54976L9.99685 9.41489C9.99396 9.41651 9.99066 9.41727 9.98735 9.41708C9.98404 9.41689 9.98085 9.41576 9.97816 9.41383C9.97546 9.41189 9.97338 9.40922 9.97215 9.40614C9.97092 9.40306 9.9706 9.39969 9.97121 9.39643L10.2858 7.56412C10.2864 7.56135 10.2862 7.5585 10.2853 7.55581C10.2845 7.55312 10.283 7.55069 10.281 7.54873L8.94967 6.25129C8.94736 6.24899 8.94573 6.24609 8.94497 6.24291C8.9442 6.23974 8.94433 6.23641 8.94534 6.23331C8.94635 6.2302 8.9482 6.22743 8.95068 6.22531C8.95317 6.22319 8.95619 6.2218 8.95941 6.22129L10.7992 5.95411C10.8019 5.95371 10.8046 5.95263 10.8069 5.95098C10.8091 5.94933 10.811 5.94715 10.8122 5.94463L11.6351 4.27796C11.6365 4.27503 11.6387 4.27258 11.6415 4.27086C11.6443 4.26914 11.6474 4.26822 11.6507 4.26822C11.654 4.26822 11.6572 4.26914 11.6599 4.27086C11.6627 4.27258 11.6649 4.27503 11.6663 4.27796L12.4892 5.94463C12.4904 5.94715 12.4923 5.94933 12.4945 5.95098C12.4968 5.95263 12.4995 5.95371 12.5022 5.95411L14.343 6.22129C14.3462 6.22195 14.3491 6.22345 14.3514 6.22563C14.3538 6.22781 14.3555 6.23059 14.3564 6.23368C14.3573 6.23676 14.3573 6.24003 14.3565 6.24313C14.3557 6.24623 14.354 6.24906 14.3517 6.25129V6.25104Z" fill="#B3E329"/>
<path d="M6.52565 9.97769C4.03001 9.97769 2 7.94743 2 5.45229V4.37357C2 4.19676 2.07024 4.02719 2.19526 3.90216C2.32029 3.77714 2.48986 3.7069 2.66667 3.7069H5.34437C5.51209 3.70769 5.67343 3.77133 5.79652 3.88526C5.91961 3.99919 5.99551 4.15513 6.00924 4.32229C6.01719 4.4251 6.00022 4.52831 5.95976 4.62317C5.91931 4.71802 5.85657 4.80172 5.77687 4.86715C5.69717 4.93258 5.60286 4.97782 5.50194 4.99902C5.40103 5.02023 5.29649 5.01678 5.19719 4.98896H3.28206V5.45255C3.28206 7.18409 4.64616 8.60307 6.35642 8.69153C6.5146 8.64141 6.68606 8.65458 6.83473 8.72827C6.9834 8.80196 7.0977 8.93043 7.1536 9.08666C7.18962 9.1873 7.2009 9.29513 7.18651 9.40105C7.17212 9.50696 7.13247 9.60787 7.0709 9.69525C7.00934 9.78263 6.92767 9.85393 6.83277 9.90313C6.73788 9.95233 6.63254 9.97799 6.52565 9.97795V9.97769Z" fill="#B3E329"/>
<path d="M16.7755 9.97795C16.6686 9.97799 16.5633 9.95233 16.4684 9.90313C16.3735 9.85393 16.2918 9.78263 16.2303 9.69525C16.1687 9.60787 16.129 9.50696 16.1147 9.40104C16.1003 9.29513 16.1115 9.1873 16.1476 9.08666C16.2036 8.93057 16.318 8.80228 16.4666 8.72874C16.6153 8.6552 16.7867 8.64214 16.9447 8.6923C17.7742 8.64797 18.5552 8.28748 19.127 7.68497C19.6989 7.08246 20.0181 6.28374 20.0191 5.45306V4.98896H18.104C18.0047 5.01673 17.9002 5.02014 17.7993 4.99891C17.6984 4.97768 17.6041 4.93244 17.5245 4.86701C17.4448 4.80158 17.3821 4.71791 17.3417 4.62308C17.3012 4.52825 17.2842 4.42507 17.2922 4.32229C17.3058 4.15515 17.3817 3.99921 17.5047 3.88527C17.6278 3.77134 17.7891 3.70769 17.9568 3.7069H20.6345C20.8113 3.7069 20.9809 3.77714 21.1059 3.90216C21.2309 4.02719 21.3012 4.19676 21.3012 4.37357V5.45203C21.3012 7.94871 19.2709 9.97795 16.7755 9.97795Z" fill="#B3E329"/>
<path d="M14.4609 18.4468H8.84039C9.30933 18.153 9.70849 17.7605 10.01 17.2965C10.3115 16.8326 10.5081 16.3084 10.586 15.7606C11.066 15.9914 11.4299 16.0814 11.6007 16.115C11.6131 16.1173 11.6257 16.1188 11.6384 16.1196H11.6507C11.6689 16.1196 11.687 16.1176 11.7048 16.1137C11.8776 16.0793 12.2389 15.9875 12.7143 15.7601C12.7922 16.3081 12.9889 16.8324 13.2906 17.2965C13.5923 17.7605 13.9917 18.1531 14.4609 18.4468Z" fill="#B3E329"/>
<path d="M18.8541 20.2749V22H4.4469V20.2749C4.44731 19.9261 4.58606 19.5917 4.83271 19.3451C5.07936 19.0985 5.41376 18.9598 5.76254 18.9595H17.5385C17.8873 18.9598 18.2217 19.0985 18.4683 19.3451C18.715 19.5917 18.8537 19.9261 18.8541 20.2749Z" fill="#B3E329"/>
</svg>
