<svg width="24" height="24" viewBox="0 0 24 24" fill="none" xmlns="http://www.w3.org/2000/svg">
<path d="M12.408 16.0065C12.3982 16.0065 12.3883 16.0065 12.3787 16.0065C12.3638 16.0053 12.3491 16.0033 12.3344 16.0005C11.7335 15.8822 8.63684 15.0195 6.70006 9.63464C6.61688 9.40387 6.53491 9.16108 6.45655 8.91348C5.94164 7.28848 5.63924 5.92381 5.55703 4.85554C5.46712 3.67765 5.64284 2.84063 6.07914 2.36971C6.40631 2.01779 6.75535 2 6.82193 2H17.9941C18.0609 2 18.4097 2.01779 18.7359 2.36971C19.1722 2.84135 19.3479 3.67693 19.259 4.85554C19.1768 5.92381 18.8744 7.28848 18.3609 8.91204C18.2823 9.15988 18.2003 9.40267 18.1172 9.63319C16.189 14.9938 13.1119 15.8726 12.4921 15.9972C12.4654 16.0029 12.438 16.0059 12.4107 16.006H12.408V16.0065ZM6.83612 2.76923C6.64789 2.79808 6.20414 3.21202 6.32482 4.79688C6.40174 5.8065 6.69237 7.11275 7.18852 8.67983C7.264 8.91805 7.34285 9.15146 7.42266 9.3731C8.19189 11.5125 9.22555 13.1315 10.4917 14.1871C11.3744 14.9229 12.1147 15.1589 12.408 15.2284C12.701 15.1589 13.4417 14.9229 14.3244 14.1871C15.5914 13.1318 16.6239 11.512 17.3934 9.3731C17.4732 9.15146 17.552 8.91805 17.6275 8.67959C18.1236 7.11275 18.4143 5.8065 18.4912 4.79688C18.6114 3.21202 18.1681 2.79808 17.9799 2.76923H6.83612ZM17.9825 2.76923C17.9864 2.76954 17.9902 2.76954 17.9941 2.76923H17.9825ZM6.82193 2.76923C6.82577 2.76954 6.82963 2.76954 6.83347 2.76923H6.82193Z" fill="#BCC4BC"/>
<path d="M7.02645 9.88806C4.80626 9.88806 3 8.08181 3 5.86185V4.85055C3 4.74217 3.04305 4.63822 3.11969 4.56159C3.19633 4.48495 3.30027 4.44189 3.40866 4.44189H5.919C6.02165 4.44238 6.12039 4.4813 6.19576 4.55098C6.27114 4.62066 6.31768 4.71604 6.32621 4.81834C6.40554 5.82459 6.69568 7.12387 7.18823 8.67989C7.26035 8.90705 7.33535 9.12965 7.41107 9.34167C7.43315 9.40334 7.44008 9.46941 7.43128 9.53432C7.42248 9.59923 7.3982 9.66107 7.3605 9.71463C7.32279 9.7682 7.27276 9.81191 7.21463 9.8421C7.1565 9.87228 7.09196 9.88804 7.02645 9.88806ZM3.76923 5.21089V5.86185C3.76923 7.48157 4.9577 8.82893 6.50963 9.07772C6.49184 9.02268 6.47405 8.96763 6.4565 8.9121C5.99761 7.46354 5.70794 6.21978 5.59304 5.21017L3.76923 5.21089Z" fill="#BCC4BC"/>
<path d="M17.7894 9.88782C17.7239 9.8878 17.6593 9.87203 17.6012 9.84185C17.5431 9.81166 17.4931 9.76795 17.4553 9.71439C17.4176 9.66082 17.3934 9.59898 17.3846 9.53407C17.3758 9.46916 17.3827 9.40309 17.4048 9.34142C17.4807 9.1294 17.5555 8.9068 17.6276 8.67964C18.1204 7.12363 18.4103 5.82434 18.4896 4.81785C18.4982 4.71531 18.5449 4.61972 18.6206 4.55C18.6963 4.48029 18.7954 4.44153 18.8983 4.44141H21.4072C21.5156 4.44141 21.6195 4.48446 21.6961 4.5611C21.7728 4.63774 21.8158 4.74168 21.8158 4.85006V5.86112C21.8158 8.08156 20.0096 9.88782 17.7894 9.88782ZM19.224 5.21064C19.1091 6.22026 18.8194 7.46329 18.3608 8.91257C18.343 8.9681 18.3254 9.02315 18.3074 9.0782C19.8581 8.82916 21.0478 7.4818 21.0478 5.86208V5.21064H19.224Z" fill="#BCC4BC"/>
<path d="M13.9665 9.96359C13.9015 9.96346 13.8375 9.94763 13.7799 9.91744L12.408 9.19628L11.0366 9.91744C10.9704 9.95233 10.8958 9.96799 10.8211 9.96264C10.7465 9.95728 10.6748 9.93113 10.6143 9.88715C10.5537 9.84316 10.5067 9.7831 10.4786 9.71377C10.4504 9.64443 10.4422 9.56859 10.4549 9.49484L10.7167 7.96768L9.60732 6.88594C9.55367 6.8337 9.51572 6.76748 9.49777 6.69479C9.47982 6.62209 9.48259 6.54582 9.50576 6.47462C9.52893 6.40341 9.57157 6.34012 9.62886 6.2919C9.68615 6.24368 9.7558 6.21247 9.82991 6.2018L11.3628 5.97897L12.0475 4.58978C12.0806 4.52267 12.1319 4.46617 12.1954 4.42666C12.259 4.38715 12.3324 4.36621 12.4072 4.36621C12.4821 4.36621 12.5554 4.38715 12.619 4.42666C12.6825 4.46617 12.7338 4.52267 12.7669 4.58978L13.4523 5.97873L14.9855 6.20156C15.0595 6.21227 15.1291 6.24349 15.1864 6.29169C15.2436 6.33989 15.2862 6.40315 15.3094 6.47431C15.3325 6.54547 15.3353 6.62169 15.3174 6.69435C15.2995 6.76701 15.2616 6.83321 15.2081 6.88546L14.0984 7.96719L14.3602 9.49436C14.3701 9.5519 14.3673 9.61089 14.352 9.66723C14.3367 9.72357 14.3093 9.7759 14.2717 9.82057C14.2342 9.86524 14.1873 9.90118 14.1344 9.92588C14.0815 9.95058 14.0239 9.96345 13.9655 9.96359H13.9665ZM10.6785 6.85565L11.3922 7.55277C11.4388 7.59814 11.4736 7.65418 11.4937 7.71604C11.5138 7.77789 11.5186 7.84372 11.5076 7.90782L11.3393 8.89027L12.2217 8.42633C12.2793 8.39595 12.3434 8.38008 12.4085 8.38008C12.4736 8.38008 12.5377 8.39595 12.5953 8.42633L13.4773 8.89003L13.309 7.90758C13.2979 7.84357 13.3026 7.77783 13.3225 7.71602C13.3425 7.6542 13.3772 7.59818 13.4237 7.55277L14.1388 6.85565L13.1532 6.71142C13.0889 6.7021 13.0277 6.67725 12.9751 6.63901C12.9225 6.60077 12.88 6.5503 12.8513 6.49195L12.408 5.59916L11.9669 6.49315C11.938 6.55129 11.8954 6.60154 11.8428 6.63956C11.7901 6.67758 11.7291 6.70224 11.6648 6.71142L10.6785 6.85565Z" fill="#BCC4BC"/>
<path d="M16.2781 18.6686C16.2523 18.6685 16.2266 18.666 16.2014 18.6609C15.3852 18.4953 14.6484 18.0602 14.1093 17.4255C13.5701 16.7908 13.2598 15.9933 13.2283 15.1612C13.2244 15.0591 13.2613 14.9598 13.3307 14.8849C13.4001 14.8101 13.4964 14.7659 13.5984 14.762C13.7004 14.7581 13.7997 14.795 13.8746 14.8644C13.9495 14.9338 13.9937 15.0301 13.9975 15.1321C14.0205 15.7922 14.2656 16.4254 14.6931 16.9289C15.1206 17.4325 15.7056 17.7771 16.3533 17.9068C16.4469 17.9255 16.5302 17.9784 16.587 18.0551C16.6438 18.1317 16.6701 18.2268 16.6607 18.3218C16.6513 18.4168 16.607 18.5049 16.5363 18.569C16.4655 18.6331 16.3735 18.6686 16.2781 18.6686Z" fill="#BCC4BC"/>
<path d="M8.53783 18.6686C8.44237 18.6686 8.3503 18.6332 8.27954 18.5691C8.20877 18.505 8.16436 18.4169 8.15495 18.3219C8.14554 18.2269 8.17179 18.1318 8.22861 18.0551C8.28542 17.9784 8.36873 17.9255 8.46235 17.9068C9.11006 17.7771 9.69502 17.4325 10.1226 16.9289C10.5501 16.4254 10.7952 15.7922 10.8181 15.1321C10.822 15.0301 10.8662 14.9338 10.9411 14.8644C11.0159 14.795 11.1153 14.7581 11.2173 14.762C11.3193 14.7659 11.4156 14.8101 11.485 14.8849C11.5544 14.9598 11.5912 15.0591 11.5874 15.1612C11.5558 15.9933 11.2456 16.7907 10.7065 17.4254C10.1674 18.0601 9.43061 18.4952 8.61451 18.6609C8.58926 18.666 8.56358 18.6685 8.53783 18.6686Z" fill="#BCC4BC"/>
<path d="M19.4017 21.9999H5.41416C5.31215 21.9999 5.21432 21.9594 5.14219 21.8873C5.07006 21.8151 5.02954 21.7173 5.02954 21.6153V19.7576C5.03011 19.2649 5.2261 18.7926 5.57451 18.4442C5.92291 18.0959 6.39527 17.8999 6.88796 17.8994H17.9279C18.4206 17.8999 18.8929 18.0959 19.2413 18.4442C19.5898 18.7926 19.7857 19.2649 19.7863 19.7576V21.6153C19.7863 21.7173 19.7458 21.8151 19.6737 21.8873C19.6015 21.9594 19.5037 21.9999 19.4017 21.9999ZM5.79877 21.2307H19.0171V19.7576C19.0167 19.4689 18.9018 19.1921 18.6976 18.9879C18.4934 18.7838 18.2166 18.669 17.9279 18.6686H6.88796C6.59923 18.669 6.32241 18.7838 6.11823 18.9879C5.91404 19.1921 5.79916 19.4689 5.79877 19.7576V21.2307Z" fill="#BCC4BC"/>
</svg>
