<svg width="24" height="24" viewBox="0 0 24 24" fill="none" xmlns="http://www.w3.org/2000/svg">
<path d="M21.1777 14.2301C21.1768 14.2292 21.1751 14.2284 21.1743 14.2267L19.8926 13.0492C19.9359 12.6941 19.9585 12.3426 19.9585 12C19.9585 11.6574 19.9359 11.3059 19.8926 10.9508L21.1777 9.76993C21.6017 9.37076 21.6985 8.73752 21.411 8.22421L19.9968 5.77914C19.7135 5.27499 19.0976 5.03497 18.5335 5.21091L16.8701 5.73581C16.306 5.29666 15.6977 4.94327 15.0576 4.68326L14.6735 2.9758C14.5476 2.41077 14.0367 2 13.4584 2H10.6252C10.0467 2 9.53601 2.41077 9.41012 2.97504L9.02591 4.68326C8.38595 4.94327 7.77759 5.29666 7.21347 5.73581L5.54843 5.21091C4.98767 5.03665 4.37015 5.27423 4.09015 5.77411L2.67017 8.2291C2.38513 8.73752 2.48172 9.37076 2.91019 9.77328L4.19177 10.9508C4.14767 11.3059 4.12509 11.6574 4.12509 12C4.12509 12.3426 4.14767 12.6941 4.19101 13.0492L2.90591 14.2301C2.48172 14.6292 2.38513 15.2625 2.67261 15.775L4.08679 18.2199C4.37015 18.725 4.98508 18.9641 5.55011 18.7891L7.21347 18.2642C7.77759 18.7033 8.38595 19.0567 9.02591 19.3167L9.41012 21.0233C9.53601 21.5892 10.0467 22 10.6252 22H13.4584C14.0367 22 14.5476 21.5892 14.6735 21.025L15.0576 19.3167C15.6977 19.0567 16.306 18.7041 16.8701 18.2642L18.5352 18.7891C19.0976 18.965 19.7135 18.725 19.9942 18.225L21.4144 15.77C21.6985 15.2625 21.6017 14.6292 21.1777 14.2301ZM12.0418 16.1667C9.74429 16.1667 7.87509 14.2975 7.87509 12C7.87509 9.70248 9.74429 7.83328 12.0418 7.83328C14.3393 7.83328 16.2085 9.70248 16.2085 12C16.2085 14.2975 14.3393 16.1667 12.0418 16.1667Z" fill="#B3E329"/>
</svg>
