<svg width="24" height="24" viewBox="0 0 24 24" fill="none" xmlns="http://www.w3.org/2000/svg">
<path d="M12.0124 16.1667C9.71484 16.1667 7.84564 14.2975 7.84564 12C7.84564 9.70245 9.71484 7.83325 12.0124 7.83325C14.3097 7.83325 16.1789 9.70245 16.1789 12C16.1789 14.2975 14.3097 16.1667 12.0124 16.1667ZM12.0124 9.08325C10.4039 9.08325 9.09564 10.3917 9.09564 12C9.09564 13.6082 10.4039 14.9167 12.0124 14.9167C13.6206 14.9167 14.9289 13.6082 14.9289 12C14.9289 10.3917 13.6206 9.08325 12.0124 9.08325Z" fill="#BCC4BC"/>
<path d="M13.3982 22H10.6264C9.95975 22 9.3706 21.5267 9.22565 20.8742L8.87485 19.3141C8.3031 19.0717 7.75806 18.7551 7.24643 18.3684L5.72726 18.8483C5.07556 19.0508 4.36725 18.7741 4.04056 18.1908L2.65903 15.8017C2.32806 15.21 2.43976 14.4817 2.92651 14.0233L4.10388 12.9409C4.06818 12.6233 4.05063 12.3084 4.05063 12C4.05063 11.6916 4.06818 11.3767 4.10312 11.0591L2.93231 9.98172C2.43976 9.51831 2.3273 8.79001 2.65475 8.2059L4.04483 5.80173C4.36725 5.22495 5.07724 4.9509 5.72482 5.15002L7.24643 5.63083C7.75806 5.24417 8.3031 4.92755 8.87485 4.68494L9.22641 3.12335C9.3706 2.47333 9.95975 2 10.6264 2H13.3982C14.0648 2 14.654 2.47333 14.7989 3.12579L15.1497 4.68585C15.7215 4.92831 16.2665 5.24493 16.7781 5.63159L18.2973 5.1517C18.9507 4.9509 19.6573 5.22586 19.984 5.8092L21.3657 8.19827C21.6965 8.79001 21.5848 9.51831 21.0981 9.97668L19.9207 11.0591C19.9556 11.3767 19.9732 11.6925 19.9732 12C19.9732 12.3075 19.9556 12.6233 19.9207 12.9409L21.0923 14.0175C21.0939 14.0192 21.0956 14.0209 21.0981 14.0226C21.5848 14.4808 21.6973 15.2092 21.3698 15.7933L19.9797 18.1975C19.6573 18.7741 18.949 19.05 18.299 18.8483L16.7772 18.3675C16.2656 18.7542 15.7205 19.0708 15.149 19.3134L14.7972 20.875C14.654 21.5267 14.0648 22 13.3982 22ZM7.37399 17.0491C7.51727 17.0491 7.65811 17.0983 7.77148 17.1917C8.34399 17.6625 8.96808 18.0258 9.62894 18.2692C9.82806 18.3425 9.97562 18.5117 10.0223 18.7183L10.4465 20.6017C10.4656 20.6884 10.5414 20.75 10.6273 20.75H13.3989C13.4848 20.75 13.5607 20.6884 13.579 20.6034L14.0039 18.7183C14.0506 18.5117 14.1982 18.3425 14.3973 18.2692C15.0573 18.0258 15.6823 17.6625 16.2548 17.1917C16.4182 17.0566 16.6381 17.0133 16.8407 17.0775L18.6748 17.6567C18.7622 17.6842 18.8556 17.6517 18.8956 17.58L20.2857 15.1758C20.3273 15.1017 20.3122 15 20.2457 14.935L18.839 13.6417C18.6864 13.5016 18.6132 13.2941 18.644 13.0892C18.6989 12.7201 18.7265 12.3534 18.7265 11.9992C18.7265 11.6449 18.6989 11.2783 18.644 10.9091C18.6132 10.7042 18.6864 10.4975 18.839 10.3566L20.2489 9.05994C20.3122 9.00089 20.3273 8.89743 20.2814 8.81503L18.8997 6.42581C18.8549 6.34662 18.7598 6.31503 18.6731 6.3425L16.8415 6.92081C16.6397 6.98505 16.4199 6.94171 16.2557 6.80667C15.6832 6.33578 15.0589 5.97247 14.3981 5.7291C14.1989 5.65585 14.0514 5.48663 14.0049 5.28003L13.5807 3.39664C13.5598 3.31165 13.4839 3.25 13.3982 3.25H10.6264C10.5406 3.25 10.4648 3.31165 10.4465 3.39664L10.0214 5.28171C9.97485 5.48831 9.8273 5.65662 9.62817 5.73077C8.96808 5.97415 8.34308 6.33746 7.77148 6.80835C7.6073 6.94339 7.38559 6.98581 7.1857 6.92249L5.35144 6.34326C5.26569 6.31671 5.17062 6.3483 5.13065 6.42001L3.74057 8.82327C3.69891 8.89835 3.71402 9.00165 3.78314 9.06665L5.18817 10.3575C5.34061 10.4975 5.414 10.705 5.38318 10.9101C5.32809 11.2792 5.30063 11.6458 5.30063 12C5.30063 12.3542 5.32809 12.7208 5.38318 13.0899C5.414 13.295 5.34061 13.5016 5.18817 13.6425L3.77811 14.9391C3.71478 14.9984 3.69983 15.1017 3.7456 15.1842L5.12729 17.5733C5.17139 17.6525 5.26645 17.6833 5.35388 17.6567L7.1857 17.0783C7.24734 17.0583 7.31067 17.0491 7.37399 17.0491Z" fill="#BCC4BC"/>
</svg>
