<svg width="24" height="24" viewBox="0 0 24 24" fill="none" xmlns="http://www.w3.org/2000/svg">
<path d="M21.7425 7.1216C21.5815 7.01262 21.377 6.99059 21.1964 7.06277L16.8958 8.78301V15.2171L21.1964 16.9373C21.2667 16.9654 21.3405 16.9792 21.414 16.9792C21.5295 16.9792 21.6442 16.9451 21.7425 16.8785C21.9036 16.7695 22 16.5877 22 16.3933V7.6068C22 7.41238 21.9036 7.23062 21.7425 7.1216Z" fill="#B3E329"/>
<path d="M13.8828 18.2344H3.84117C2.82598 18.2344 2 17.4084 2 16.3932V7.60676C2 6.59156 2.82598 5.76562 3.84117 5.76562H13.8828C14.898 5.76562 15.7239 6.59156 15.7239 7.60676V16.3932C15.7239 17.4084 14.898 18.2344 13.8828 18.2344Z" fill="#B3E329"/>
</svg>
