<svg width="24" height="24" viewBox="0 0 24 24" fill="none" xmlns="http://www.w3.org/2000/svg">
<path d="M21.7425 7.12156C21.5815 7.01258 21.377 6.99055 21.1964 7.06273L15.7239 9.25172V7.60676C15.7239 6.59156 14.898 5.76562 13.8828 5.76562H3.84117C2.82598 5.76562 2 6.59156 2 7.60676V16.3932C2 17.4084 2.82598 18.2344 3.84117 18.2344H13.8828C14.898 18.2344 15.7239 17.4084 15.7239 16.3932V14.7483L21.1964 16.9373C21.2667 16.9654 21.3405 16.9792 21.414 16.9792C21.5295 16.9792 21.6442 16.945 21.7425 16.8784C21.9036 16.7694 22 16.5877 22 16.3932V7.60676C22 7.41234 21.9036 7.23059 21.7425 7.12156ZM14.5521 16.3932C14.5521 16.7623 14.2518 17.0625 13.8828 17.0625H3.84117C3.47215 17.0625 3.17188 16.7623 3.17188 16.3932V7.60676C3.17188 7.23773 3.47215 6.9375 3.84117 6.9375H13.8828C14.2518 6.9375 14.5521 7.23773 14.5521 7.60676V16.3932ZM20.8281 15.5278L15.7239 13.4861V10.5139L20.8281 8.47219V15.5278Z" fill="#BCC4BC"/>
</svg>
