<svg width="20" height="20" viewBox="0 0 20 20" fill="none" xmlns="http://www.w3.org/2000/svg">
<g clip-path="url(#clip0_1418_13578)">
<path d="M9.5 15C9.30575 15 9.11946 14.9228 8.9821 14.7855C8.84474 14.6481 8.76758 14.4618 8.76758 14.2676V0.732422C8.76758 0.538172 8.84474 0.351877 8.9821 0.214521C9.11946 0.0771657 9.30575 0 9.5 0C9.69425 0 9.88054 0.0771657 10.0179 0.214521C10.1553 0.351877 10.2324 0.538172 10.2324 0.732422V14.2676C10.2324 14.4618 10.1553 14.6481 10.0179 14.7855C9.88054 14.9228 9.69425 15 9.5 15Z" fill="#08080B"/>
<path d="M16.2676 8.23242H2.73242C2.53817 8.23242 2.35188 8.15526 2.21452 8.0179C2.07717 7.88054 2 7.69425 2 7.5C2 7.30575 2.07717 7.11946 2.21452 6.9821C2.35188 6.84474 2.53817 6.76758 2.73242 6.76758H16.2676C16.4618 6.76758 16.6481 6.84474 16.7855 6.9821C16.9228 7.11946 17 7.30575 17 7.5C17 7.69425 16.9228 7.88054 16.7855 8.0179C16.6481 8.15526 16.4618 8.23242 16.2676 8.23242Z" fill="#08080B"/>
</g>
<defs>
<clipPath id="clip0_1418_13578">
<rect width="15" height="15" fill="white" transform="translate(2)"/>
</clipPath>
</defs>
</svg>
