<svg width="20" height="20" viewBox="0 0 20 20" fill="none" xmlns="http://www.w3.org/2000/svg">
<g clip-path="url(#clip0_2631_115363)">
<path d="M18.8461 13.5256L18.8461 11.9792L20 11.9792L20 7.94096L18.8461 7.94096L18.8461 6.4742C18.8461 5.51974 18.0697 4.74353 17.1154 4.74353L1.73071 4.74353C0.776552 4.74353 -3.39386e-08 5.51995 -7.565e-08 6.4742L-3.83875e-07 13.5256C-4.25609e-07 14.4803 0.776552 15.2564 1.73071 15.2564L17.1154 15.2564C18.0697 15.2564 18.8461 14.4803 18.8461 13.5256ZM1.73058 14.1027C1.41263 14.1027 1.15381 13.8438 1.15381 13.5256L1.15381 6.4742C1.15381 6.15595 1.41216 5.89708 1.73058 5.89708L17.1154 5.89708C17.4333 5.89708 17.6923 6.15595 17.6923 6.4742L17.6923 13.5256C17.6923 13.8438 17.4334 14.1027 17.1154 14.1027L1.73058 14.1027ZM1.83664 13.4736L1.83664 6.52629L4.36802 6.52629L4.36802 13.4734L1.83664 13.4734L1.83664 13.4736ZM4.99155 13.4736L4.99155 6.52629L7.52281 6.52629L7.52281 13.4734L4.99155 13.4734L4.99155 13.4736ZM8.14655 13.4736L8.14655 6.52629L10.678 6.52629L10.678 13.4734L8.14655 13.4734L8.14655 13.4736ZM11.2944 13.4736L11.2944 6.52629L13.8258 6.52629L13.8258 13.4734L11.2944 13.4734L11.2944 13.4736ZM14.4495 13.4736L14.4495 6.52629L16.981 6.52629L16.981 13.4734L14.4495 13.4734L14.4495 13.4736Z" fill="#C9EF79"/>
</g>
<defs>
<clipPath id="clip0_2631_115363">
<rect width="20" height="20" fill="white" transform="translate(20) rotate(90)"/>
</clipPath>
</defs>
</svg>
