<svg width="36" height="36" viewBox="0 0 36 36" fill="none" xmlns="http://www.w3.org/2000/svg">
<path d="M0 18C0 8.05887 8.05887 0 18 0C27.9411 0 36 8.05887 36 18C36 27.9411 27.9411 36 18 36C8.05887 36 0 27.9411 0 18Z" fill="white"/>
<path fill-rule="evenodd" clip-rule="evenodd" d="M23.0625 11.277H24.1875C24.6353 11.277 25.0644 11.4549 25.3806 11.771C25.6973 12.0879 25.875 12.5168 25.875 12.9648V15.2149H10.125V12.9648C10.125 12.5168 10.3027 12.0879 10.6194 11.771C10.9356 11.4549 11.3648 11.277 11.8125 11.277H12.9375V12.9648C12.9375 13.2753 13.1895 13.5271 13.5 13.5271C13.8105 13.5271 14.0625 13.2753 14.0625 12.9648V11.277H21.9375V12.9648C21.9375 13.2753 22.1895 13.5271 22.5 13.5271C22.8105 13.5271 23.0625 13.2753 23.0625 12.9648V11.277ZM12.9375 11.277V10.7138C12.9375 10.4033 13.1895 10.1515 13.5 10.1515C13.8105 10.1515 14.0625 10.4033 14.0625 10.7138V11.277H12.9375ZM21.9375 11.277V10.7138C21.9375 10.4033 22.1895 10.1515 22.5 10.1515C22.8105 10.1515 23.0625 10.4033 23.0625 10.7138V11.277H21.9375ZM25.875 16.3403V24.2161C25.875 24.664 25.6973 25.0929 25.3806 25.4099C25.0644 25.726 24.6353 25.9039 24.1875 25.9039H11.8125C11.3648 25.9039 10.9356 25.726 10.6194 25.4099C10.3027 25.0929 10.125 24.664 10.125 24.2161V16.3403H25.875Z" fill="#08080B"/>
</svg>
