<svg width="18" height="18" viewBox="0 0 18 18" fill="none" xmlns="http://www.w3.org/2000/svg">
<path d="M14.4086 7.25404C14.1659 7.25404 13.9691 7.4508 13.9691 7.69351V14.139C13.9691 14.5429 13.6406 14.8715 13.2367 14.8715H3.86138C3.45751 14.8715 3.12893 14.5429 3.12893 14.139V4.76372C3.12893 4.35985 3.45751 4.03128 3.86138 4.03128H10.3069C10.5496 4.03128 10.7464 3.83451 10.7464 3.59181C10.7464 3.34911 10.5496 3.15234 10.3069 3.15234H3.86138C2.97287 3.15234 2.25 3.87521 2.25 4.76372V14.139C2.25 15.0275 2.97287 15.7504 3.86138 15.7504H13.2367C14.1252 15.7504 14.8481 15.0275 14.8481 14.139V7.69351C14.8481 7.4508 14.6513 7.25404 14.4086 7.25404Z" fill="#08080B"/>
<path d="M16.95 1.87854L16.1213 1.04985C15.7216 0.65005 15.071 0.65005 14.6712 1.04985L8.04188 7.67919C7.98053 7.74054 7.93872 7.81867 7.92167 7.90375L7.50731 9.97543C7.47851 10.1195 7.5236 10.2685 7.62752 10.3724C7.71076 10.4556 7.82288 10.5011 7.93826 10.5011C7.96694 10.5011 7.99577 10.4983 8.02442 10.4926L10.0961 10.0782C10.1812 10.0612 10.2593 10.0194 10.3207 9.958L16.95 3.32869C16.95 3.32869 16.9501 3.32869 16.9501 3.32866C17.3498 2.92889 17.3498 2.27837 16.95 1.87854ZM9.79328 9.24243L8.49849 9.50142L8.75748 8.20664L14.1533 2.81077L15.1891 3.84662L9.79328 9.24243ZM16.3285 2.7072L15.8106 3.22513L14.7748 2.18927L15.2927 1.67137C15.3498 1.61424 15.4427 1.61421 15.4999 1.67134L16.3285 2.50003C16.3857 2.55713 16.3857 2.6501 16.3285 2.7072Z" fill="#08080B"/>
</svg>
