<svg width="36" height="36" viewBox="0 0 36 36" fill="none" xmlns="http://www.w3.org/2000/svg">
<path d="M0 18C0 8.05887 8.05887 0 18 0C27.9411 0 36 8.05887 36 18C36 27.9411 27.9411 36 18 36C8.05887 36 0 27.9411 0 18Z" fill="white"/>
<g clip-path="url(#clip0_1343_14082)">
<path d="M25.14 10.0002H10.8756C10.6238 9.99977 10.3932 10.1403 10.2782 10.3641C10.1616 10.591 10.1821 10.8641 10.331 11.0713L15.5569 18.4331C15.5586 18.4357 15.5605 18.4381 15.5623 18.4406C15.7522 18.6969 15.855 19.0075 15.8554 19.3265V25.3286C15.8543 25.5063 15.9241 25.6771 16.0493 25.8032C16.1746 25.9292 16.345 26.0002 16.5226 26.0002C16.6129 26.0001 16.7024 25.9822 16.7858 25.9474L19.7223 24.8278C19.9854 24.7474 20.16 24.4991 20.16 24.2003V19.3265C20.1605 19.0075 20.2633 18.6969 20.453 18.4406C20.4547 18.4381 20.4566 18.4357 20.4584 18.4331L25.6844 11.0712C25.8334 10.8641 25.8539 10.5911 25.7373 10.3643C25.6224 10.1403 25.3916 9.99977 25.14 10.0002Z" fill="#08080B"/>
</g>
<defs>
<clipPath id="clip0_1343_14082">
<rect width="16" height="16" fill="white" transform="translate(10 10.0002)"/>
</clipPath>
</defs>
</svg>
