<svg width="20" height="20" viewBox="0 0 20 20" fill="none" xmlns="http://www.w3.org/2000/svg">
<g clip-path="url(#clip0_2783_23425)">
<path fill-rule="evenodd" clip-rule="evenodd" d="M16 10C18.2091 10 20 8.2091 20 6C20 3.79086 18.2091 2 16 2C14.1362 2 12.5701 3.27477 12.126 5H1C0.44772 5 0 5.44772 0 6C0 6.55229 0.44772 7 1 7H12.126C12.5701 8.7252 14.1362 10 16 10ZM14 6C14 7.10457 14.8954 8 16 8C17.1046 8 18 7.10457 18 6C18 4.89543 17.1046 4 16 4C14.8954 4 14 4.89543 14 6ZM0 14C0 11.7909 1.79086 10 4 10C5.86384 10 7.42994 11.2748 7.87398 13H19C19.5523 13 20 13.4477 20 14C20 14.5523 19.5523 15 19 15H7.87398C7.42994 16.7252 5.86384 18 4 18C1.79086 18 0 16.2091 0 14ZM6 14C6 12.8954 5.10457 12 4 12C2.89543 12 2 12.8954 2 14C2 15.1046 2.89543 16 4 16C5.10457 16 6 15.1046 6 14Z" fill="white"/>
</g>
<defs>
<clipPath id="clip0_2783_23425">
<rect width="20" height="20" fill="white" transform="matrix(-1 0 0 1 20 0)"/>
</clipPath>
</defs>
</svg>
