<svg width="38" height="39" viewBox="0 0 38 39" fill="none" xmlns="http://www.w3.org/2000/svg">
<g clip-path="url(#clip0_739_13962)">
<path d="M31.5539 18.7569C31.5523 18.6827 31.5492 18.6101 31.5431 18.5375C31.5431 18.519 31.5415 18.502 31.54 18.485C31.5184 18.1143 31.4674 17.7374 31.3855 17.3558C31.384 17.3574 31.3809 17.3589 31.3793 17.3605C31.3299 17.1334 31.2681 16.9125 31.2001 16.6993C30.0323 13.08 26.3992 11.2944 26.0006 11.1059C25.9775 11.0951 25.9651 11.0905 25.9651 11.0905C25.5604 10.9066 25.1727 10.7599 24.8066 10.644C24.4405 10.5266 24.0975 10.4417 23.7809 10.3799C23.7762 10.3799 23.7732 10.3783 23.7701 10.3783C23.4179 10.3088 23.0997 10.2671 22.8247 10.2439C22.0863 10.1837 21.6445 10.2532 21.6445 10.2532C24.0373 11.3639 24.8915 13.0584 25.1819 13.9327C25.2005 13.9914 25.2205 14.047 25.236 14.1057C25.2391 14.1181 25.2437 14.1289 25.2453 14.1413C25.2762 14.2556 25.3024 14.373 25.3256 14.4935C25.3256 14.4981 25.3256 14.5012 25.3256 14.5012C25.5079 15.5052 25.3704 16.6777 24.6212 17.9845C24.2721 18.6101 23.8411 19.1863 23.3406 19.6992L22.281 20.782L18.9814 24.151L15.2571 20.4267L12.3253 17.4948C12.3253 17.4948 12.1492 17.3079 11.8758 16.9804C11.8742 16.9789 11.8711 16.9758 11.8696 16.9727C11.8479 16.948 11.8279 16.9233 11.8093 16.9001C11.4988 16.5232 11.0802 15.9872 10.6539 15.3431C10.4639 15.0465 10.2909 14.7406 10.1302 14.4286C9.92014 14.0161 9.73632 13.5898 9.58031 13.1542C9.11071 11.852 8.88055 10.4664 8.88982 9.06533C8.9238 3.53061 5.87453 2.73508 5.78031 2.71191H5.77876C5.77876 2.71191 5.77876 2.71191 5.78031 2.71191C5.84055 2.79069 7.55209 5.11549 4.63876 8.40728C4.61096 8.43817 4.58315 8.47061 4.55226 8.5046C4.51673 8.54321 4.47965 8.58338 4.44258 8.62354C3.45705 9.67704 2.87469 10.8464 2.54258 11.9617C2.53949 11.974 2.5364 11.9848 2.53331 11.9957C2.38811 12.5239 2.27226 13.0754 2.20429 13.6454C2.10079 14.4811 2.0977 15.3554 2.23364 16.2498C2.23673 16.273 2.23982 16.2961 2.24291 16.3162C2.24291 16.3255 2.246 16.3348 2.24754 16.3425C2.24754 16.3471 2.24909 16.3548 2.24909 16.3579C2.25063 16.3796 2.25372 16.4027 2.25835 16.4244C2.26608 16.4676 2.27226 16.5047 2.27689 16.5402C2.2877 16.5943 2.29543 16.6422 2.30315 16.6792C2.30624 16.6947 2.30933 16.7086 2.31242 16.7209C2.32014 16.7565 2.32478 16.7796 2.32632 16.7874V16.7889C2.5364 17.7899 2.93185 18.814 3.56364 19.8305C3.79071 20.195 4.04713 20.5596 4.33909 20.9226C4.81795 21.5204 5.29681 22.0564 5.77104 22.5383L9.9047 26.6689C9.92323 26.6874 9.94022 26.7044 9.95721 26.723L9.96494 26.7322L11.8248 28.5905L16.2349 32.9961L18.9845 35.7441L23.4287 31.3015L28.7332 25.9954C28.8429 25.8734 30.0462 24.5125 30.8464 22.5074C30.8495 22.4997 30.8526 22.492 30.8557 22.4858C30.885 22.4132 30.9113 22.3406 30.9391 22.2696C31.0642 21.9405 31.1739 21.5961 31.2681 21.2361C31.3577 20.8901 31.4288 20.5318 31.4797 20.1626C31.4936 20.0637 31.506 19.9664 31.5153 19.8706C31.5307 19.7254 31.5415 19.5818 31.5492 19.4427C31.5508 19.3995 31.5539 19.3562 31.5539 19.3114C31.5539 19.3022 31.5539 19.2929 31.5539 19.2821C31.5554 19.2465 31.557 19.2126 31.557 19.177C31.557 19.1183 31.5585 19.0612 31.5585 19.004C31.5585 18.9206 31.5585 18.8372 31.5539 18.7553V18.7569Z" fill="url(#paint0_linear_739_13962)"/>
<path d="M22.8834 16.8245L22.8757 16.8369C22.61 17.3111 22.284 17.7483 21.9056 18.136L18.8625 21.2455L13.6831 16.0676C13.6414 16.0228 13.5132 15.8807 13.3309 15.6629L13.2722 15.5919C13.1193 15.4065 12.971 15.218 12.8288 15.028C12.7717 14.9647 10.9659 12.8979 10.7651 9.58909C10.7574 9.45625 10.7512 9.32031 10.7497 9.18283C10.7033 6.79161 11.5158 3.80413 14.3442 0.486084C14.2994 0.56023 12.7717 3.11982 12.971 6.15519C12.9802 6.27568 12.9926 6.39617 13.0065 6.5182C13.0065 6.5182 13.0065 6.52283 13.0065 6.53364C13.0142 6.64177 13.0683 7.3369 13.3911 8.33169C13.3942 8.34251 13.3973 8.35332 13.4004 8.36413C13.5162 8.71324 13.6645 9.10096 13.8545 9.51186C14.4045 10.6967 15.3097 12.0823 16.7926 13.3736H16.7941C17.4244 13.9205 18.033 14.4766 18.8888 14.9678C19.241 14.3005 19.6333 13.057 18.7497 11.6714C18.501 11.2806 18.308 10.9376 18.1581 10.6364C17.1849 8.47844 18.7049 7.40332 19.0741 7.18397L19.1529 7.13917C19.1529 7.13917 19.1514 7.14535 19.1467 7.15771C19.1421 7.17007 19.1375 7.18551 19.1328 7.19942C19.1266 7.21795 19.1189 7.24112 19.1112 7.26893C18.9351 7.84356 18.362 10.1792 20.3362 11.1045C20.52 11.191 20.6945 11.2821 20.8567 11.3794C21.0622 11.5015 21.2522 11.6297 21.4252 11.7625C22.1203 12.2908 22.5775 12.8824 22.8602 13.3428C23.1445 13.8031 23.2541 14.1306 23.2541 14.1306C23.2634 14.1599 23.2742 14.1862 23.2835 14.214C23.2912 14.2371 23.2974 14.2588 23.3051 14.2819L23.3144 14.3082C23.3144 14.3082 23.3175 14.3175 23.319 14.3221L23.3236 14.336C23.3406 14.3978 23.3545 14.4596 23.3669 14.5229L23.3731 14.5523C23.5044 15.2752 23.3437 16.0151 22.8834 16.8184V16.8245Z" fill="url(#paint1_linear_739_13962)"/>
<path d="M24.6042 33.129C27.9269 33.4889 30.1606 34.1593 30.1606 34.9255C30.1606 35.962 26.0871 36.8208 20.7563 36.9784C20.2558 36.9939 19.7461 37.0016 19.2271 37.0047C19.1467 37.0047 19.0649 37.0047 18.983 37.0047C18.9011 37.0047 18.8193 37.0047 18.7389 37.0047C18.2184 37.0031 17.7086 36.9939 17.2081 36.9784C11.8773 36.8208 7.80389 35.962 7.80389 34.9255C7.80389 34.1593 10.036 33.4904 13.3571 33.129C12.6481 32.4199 11.6564 32.0678 10.6585 32.1728C5.49454 32.715 2.00812 33.7438 2.00812 34.9255C2.00812 36.6278 9.2482 38.0149 18.311 38.0798C18.535 38.0813 18.7575 38.0829 18.983 38.0829C19.2085 38.0829 19.431 38.0829 19.6549 38.0798C28.7178 38.0149 35.9563 36.6278 35.9563 34.9255C35.9563 33.7453 32.4684 32.7165 27.3028 32.1728C26.3065 32.0678 25.3132 32.4199 24.6042 33.129Z" fill="url(#paint2_linear_739_13962)"/>
</g>
<defs>
<linearGradient id="paint0_linear_739_13962" x1="16.8437" y1="2.71191" x2="16.8437" y2="35.7441" gradientUnits="userSpaceOnUse">
<stop stop-color="#B3E329"/>
<stop offset="0.685" stop-color="#FF5621"/>
</linearGradient>
<linearGradient id="paint1_linear_739_13962" x1="17.0825" y1="0.486084" x2="17.0825" y2="21.2455" gradientUnits="userSpaceOnUse">
<stop stop-color="#B3E329"/>
<stop offset="0.685" stop-color="#FF5621"/>
</linearGradient>
<linearGradient id="paint2_linear_739_13962" x1="18.9822" y1="32.1545" x2="18.9822" y2="38.0829" gradientUnits="userSpaceOnUse">
<stop stop-color="#EFF407"/>
<stop offset="0.0001" stop-color="#FF5621"/>
</linearGradient>
<clipPath id="clip0_739_13962">
<rect width="38" height="38" fill="white" transform="translate(0 0.331543)"/>
</clipPath>
</defs>
</svg>
