<svg width="24" height="24" viewBox="0 0 24 24" fill="none" xmlns="http://www.w3.org/2000/svg">
<path d="M11.356 11.3503V7.41992H7.28606C7.06611 8.5795 6.93005 9.89076 6.90039 11.3503H11.356Z" fill="white"/>
<path d="M11.3553 6.12602V1C9.84406 1.37826 8.39969 3.11111 7.58203 6.12602H11.3553Z" fill="white"/>
<path d="M5.60834 12.6484H1C1.07847 14.0062 1.4028 15.319 1.95204 16.5356H5.97327C5.76171 15.3388 5.63869 14.037 5.60834 12.6484Z" fill="white"/>
<path d="M1 11.3503H5.60701C5.6343 9.94527 5.75654 8.62861 5.97021 7.41992H1.97184C1.41072 8.6486 1.07937 9.97645 1 11.3503Z" fill="white"/>
<path d="M12.6465 1.00586V6.12648H16.4085C16.0991 4.99757 15.7285 4.14818 15.3866 3.52797C14.622 2.14142 13.667 1.26923 12.6465 1.00586Z" fill="white"/>
<path d="M11.3546 12.6484H6.90039C6.93427 14.1597 7.07838 15.4464 7.28464 16.5356H11.3546L11.3546 12.6484Z" fill="white"/>
<path d="M16.5138 2.89863C17.0236 3.82321 17.4337 4.90685 17.7396 6.12444H21.3262C20.8898 5.4324 20.3733 4.78329 19.781 4.18899C18.5809 2.98471 17.1565 2.09235 15.6055 1.55078C15.9323 1.94511 16.236 2.3949 16.5138 2.89863Z" fill="white"/>
<path d="M17.1008 11.3503C17.0664 9.81889 16.9188 8.51826 16.7081 7.41992H12.6465V11.3503H17.1008Z" fill="white"/>
<path d="M17.7639 17.8301C17.4573 19.0737 17.0423 20.1789 16.5232 21.1186C16.2517 21.6099 15.9554 22.0494 15.6367 22.4361C17.1757 21.8935 18.589 21.0049 19.7811 19.8087C20.3856 19.2022 20.9109 18.5382 21.3529 17.8301H17.7639Z" fill="white"/>
<path d="M6.24519 6.12544C6.55071 4.89944 6.96208 3.8091 7.47512 2.88033C7.7466 2.38891 8.04295 1.94927 8.36169 1.5625C6.82262 2.1051 5.40928 2.9937 4.2171 4.18995C3.62482 4.78425 3.10829 5.43336 2.67188 6.1254L6.24519 6.12544Z" fill="white"/>
<path d="M18.0176 7.41992C18.2339 8.62865 18.3598 9.94488 18.3906 11.3503H22.9988C22.9194 9.97645 22.588 8.6486 22.0269 7.41992H18.0176Z" fill="white"/>
<path d="M7.48363 21.0993C6.96775 20.1637 6.55415 19.0653 6.24707 17.8301H2.64453C3.08659 18.5382 3.61185 19.2022 4.21636 19.8087C5.4165 21.013 6.84077 21.9053 8.39185 22.4469C8.06498 22.0526 7.76135 21.6029 7.48363 21.0993Z" fill="white"/>
<path d="M12.6465 12.6484V16.5356H16.7247C16.9398 15.3866 17.073 14.0899 17.1022 12.6484H12.6465Z" fill="white"/>
<path d="M22.9996 12.6484H18.3927C18.3658 14.0368 18.2461 15.3387 18.0371 16.5356H22.0476C22.5968 15.319 22.9211 14.0062 22.9996 12.6484Z" fill="white"/>
<path d="M12.6465 17.8301V22.9993C14.1651 22.6193 15.6163 20.8719 16.4318 17.8301H12.6465Z" fill="white"/>
<path d="M11.3538 22.9939V17.8301H7.58008C7.89189 18.9807 8.26753 19.8439 8.61386 20.472C9.3784 21.8584 10.3333 22.7305 11.3538 22.9939Z" fill="white"/>
</svg>
