<svg width="20" height="20" viewBox="0 0 20 20" fill="none" xmlns="http://www.w3.org/2000/svg">
<g clip-path="url(#clip0_2409_179)">
<g clip-path="url(#clip1_2409_179)">
<path d="M17.2168 1.37286C16.2088 0.366598 14.5764 0.366598 13.5683 1.37286L12.655 2.29115L2.93316 12.0079L2.9125 12.0287C2.9075 12.0337 2.9075 12.039 2.90217 12.039C2.89184 12.0545 2.87635 12.0698 2.86618 12.0853C2.86618 12.0905 2.86085 12.0905 2.86085 12.0957C2.85052 12.1112 2.84551 12.1215 2.83502 12.137C2.83002 12.1422 2.83002 12.1472 2.82485 12.1525C2.81969 12.168 2.81452 12.1783 2.8092 12.1938C2.8092 12.1988 2.80419 12.1988 2.80419 12.2041L0.647201 18.6905C0.583926 18.8751 0.632028 19.0796 0.771006 19.2167C0.868663 19.313 1.00038 19.3669 1.13742 19.3665C1.19343 19.3655 1.24896 19.3568 1.30255 19.3406L7.78385 17.1785C7.78886 17.1785 7.78886 17.1785 7.79418 17.1735C7.81049 17.1686 7.82614 17.1617 7.84051 17.1527C7.84454 17.1522 7.8481 17.1504 7.851 17.1476C7.86634 17.1373 7.887 17.1268 7.90249 17.1165C7.91783 17.1063 7.93348 17.0908 7.94898 17.0805C7.95415 17.0752 7.95915 17.0752 7.95915 17.0702C7.96448 17.065 7.97481 17.06 7.97997 17.0495L18.6151 6.41434C19.6214 5.4063 19.6214 3.77391 18.6151 2.76604L17.2168 1.37286ZM7.61872 15.9658L4.02724 12.3744L13.0163 3.38539L16.6078 6.97671L7.61872 15.9658ZM3.52136 13.329L6.65895 16.4665L1.94756 18.0351L3.52136 13.329ZM17.8876 5.69185L17.3406 6.24405L13.749 2.6524L14.3013 2.10036C14.9055 1.49667 15.8848 1.49667 16.4891 2.10036L17.8926 3.50386C18.4923 4.11079 18.49 5.08783 17.8876 5.69185Z" fill="white"/>
</g>
</g>
<defs>
<clipPath id="clip0_2409_179">
<rect width="20" height="20" fill="white" transform="matrix(-1 0 0 1 19.9999 0)"/>
</clipPath>
<clipPath id="clip1_2409_179">
<rect width="20" height="20" fill="white"/>
</clipPath>
</defs>
</svg>
