<svg width="14" height="14" viewBox="0 0 14 14" fill="none" xmlns="http://www.w3.org/2000/svg">
<g clip-path="url(#clip0_1278_253)">
<path d="M7 1C3.6838 1 1 3.6835 1 7C1 10.3161 3.6835 13 7 13C10.3162 13 13 10.3165 13 7C13 3.6838 10.3165 1 7 1ZM7 12.1628C4.15323 12.1628 1.83721 9.84679 1.83721 7C1.83721 4.15321 4.15323 1.83721 7 1.83721C9.84679 1.83721 12.1628 4.15321 12.1628 7C12.1628 9.84679 9.84679 12.1628 7 12.1628Z" fill="white"/>
<path d="M6.8224 8.59198C6.49069 8.59198 6.22217 8.8684 6.22217 9.20009C6.22217 9.52392 6.48279 9.80825 6.8224 9.80825C7.16201 9.80825 7.43051 9.52392 7.43051 9.20009C7.43051 8.8684 7.15409 8.59198 6.8224 8.59198Z" fill="white"/>
<path d="M6.92514 3.9873C5.85892 3.9873 5.36926 4.61916 5.36926 5.04562C5.36926 5.35364 5.62989 5.49581 5.84312 5.49581C6.26961 5.49581 6.09587 4.88766 6.90144 4.88766C7.29632 4.88766 7.61226 5.06142 7.61226 5.42473C7.61226 5.8512 7.16997 6.09602 6.90934 6.31716C6.68029 6.51457 6.38019 6.83841 6.38019 7.51763C6.38019 7.9283 6.49077 8.04677 6.81456 8.04677C7.20154 8.04677 7.28052 7.87303 7.28052 7.72294C7.28052 7.31227 7.28842 7.07534 7.72281 6.73573C7.93604 6.56988 8.60734 6.03281 8.60734 5.29043C8.60734 4.54805 7.93604 3.9873 6.92514 3.9873Z" fill="white"/>
</g>
<defs>
<clipPath id="clip0_1278_253">
<rect width="12" height="12" fill="white" transform="translate(1 1)"/>
</clipPath>
</defs>
</svg>
