<svg width="18" height="18" viewBox="0 0 18 18" fill="none" xmlns="http://www.w3.org/2000/svg">
<g clip-path="url(#clip0_1744_5815)">
<path d="M16.8484 16.1295L12.7175 12.0646C13.7992 10.8893 14.4639 9.33495 14.4639 7.62455C14.4634 3.96568 11.4497 1 7.73182 1C4.01395 1 1.00024 3.96568 1.00024 7.62455C1.00024 11.2834 4.01395 14.2491 7.73182 14.2491C9.3382 14.2491 10.8115 13.6935 11.9688 12.7697L16.1158 16.8507C16.3179 17.0498 16.6459 17.0498 16.848 16.8507C17.0505 16.6517 17.0505 16.3286 16.8484 16.1295ZM7.73182 13.2299C4.58609 13.2299 2.03599 10.7203 2.03599 7.62455C2.03599 4.52881 4.58609 2.01923 7.73182 2.01923C10.8776 2.01923 13.4276 4.52881 13.4276 7.62455C13.4276 10.7203 10.8776 13.2299 7.73182 13.2299Z" fill="#BCC4BC"/>
</g>
<defs>
<clipPath id="clip0_1744_5815">
<rect width="16" height="16" fill="white" transform="translate(1 1)"/>
</clipPath>
</defs>
</svg>
