<svg width="20" height="20" viewBox="0 0 20 20" fill="none" xmlns="http://www.w3.org/2000/svg">
<path d="M19.706 14.3416L14.2287 11.2079C13.9992 11.0766 13.7103 11.1153 13.5234 11.3022L12.8278 11.9979L11.9083 11.0783L14.5913 8.39514L11.515 5.31885L8.83209 8.00198L8.00369 7.17354L8.6994 6.47776C8.88631 6.29084 8.9249 6.0019 8.79365 5.77248L5.66009 0.295052C5.50697 0.0273952 5.17255 -0.075769 4.89517 0.059114L0.331572 2.2792C0.16122 2.36205 0.041415 2.52224 0.0100478 2.70908C-0.0213195 2.89591 0.0395791 3.08642 0.173564 3.22041L5.65076 8.69788C5.76064 8.8078 5.90966 8.86952 6.06509 8.86952C6.22052 8.86952 6.36955 8.8078 6.47943 8.69788L7.1751 8.00217L8.11189 8.93905C7.89732 9.43667 7.87666 9.99846 8.05064 10.5083C7.5701 10.2482 7.02974 10.1099 6.46803 10.1099C5.57791 10.1099 4.74103 10.4565 4.11162 11.086C3.88283 11.3148 3.88283 11.6858 4.11162 11.9146L5.63943 13.4425L5.25045 13.8314C5.02166 14.0603 5.02166 14.4312 5.25048 14.6601C5.3649 14.7745 5.51486 14.8317 5.66478 14.8317C5.8147 14.8317 5.9647 14.7745 6.07912 14.6601L6.46806 14.2711L7.9958 15.7989C8.10568 15.9089 8.25471 15.9706 8.41014 15.9706C8.56557 15.9706 8.71459 15.9089 8.82447 15.7989C9.88908 14.7343 10.0807 13.1228 9.40069 11.8605C9.62526 11.9374 9.86334 11.9779 10.1077 11.9779C10.4101 11.9779 10.7028 11.9161 10.9722 11.7994L11.9992 12.8265L11.3035 13.5223C11.0747 13.751 11.0747 14.122 11.3035 14.3509L16.7807 19.8284C16.8915 19.9391 17.0409 20 17.195 20C17.2272 20 17.2597 19.9973 17.292 19.9919C17.4789 19.9605 17.6391 19.8407 17.7219 19.6704L19.9419 15.1065C20.0768 14.8292 19.9736 14.4948 19.706 14.3416Z" fill="#EFDA79"/>
<path d="M5.6638 18.7379C3.18696 18.7379 1.17188 16.7227 1.17188 14.2457C1.17188 13.9221 0.909532 13.6598 0.585938 13.6598C0.262344 13.6598 0 13.9221 0 14.2457C0 17.3689 2.54075 19.9098 5.66376 19.9098C5.98735 19.9098 6.2497 19.6475 6.2497 19.3239C6.2497 19.0003 5.98743 18.7379 5.6638 18.7379Z" fill="#EFDA79"/>
<path d="M5.66391 16.199C4.58703 16.199 3.71094 15.3228 3.71094 14.2459C3.71094 13.9223 3.44859 13.6599 3.125 13.6599C2.80141 13.6599 2.53906 13.9223 2.53906 14.2459C2.53906 15.969 3.94086 17.3709 5.66391 17.3709C5.9875 17.3709 6.24985 17.1085 6.24985 16.7849C6.24985 16.4613 5.98754 16.199 5.66391 16.199Z" fill="#EFDA79"/>
<path d="M15.7322 7.25234C16.5698 6.41469 16.5698 5.05168 15.7322 4.21402L15.6942 4.17601C15.2884 3.77019 14.7489 3.54675 14.1751 3.54675C13.6012 3.54675 13.0617 3.77023 12.656 4.17601L12.3418 4.49023L15.4181 7.56648L15.7322 7.25234Z" fill="#EFDA79"/>
</svg>
