<svg width="24" height="24" viewBox="0 0 24 24" fill="none" xmlns="http://www.w3.org/2000/svg">
<path d="M21.1046 10.955C21.1142 10.8152 21.12 10.6755 21.12 10.5338C21.12 6.76109 18.1046 3.69214 14.4 3.69214C11.7255 3.69214 9.31678 5.31555 8.25216 7.78247C7.90847 7.66225 7.55616 7.60164 7.2 7.60164C5.48447 7.60164 4.06462 8.91718 3.86784 10.6481C1.63678 11.0948 0 13.0779 0 15.4206C0 18.1153 2.1533 20.3075 4.8 20.3075H19.2C21.8458 20.3075 24 18.1153 24 15.4206C24 13.4737 22.8509 11.7242 21.1046 10.955Z" fill="#B3E329"/>
<g clip-path="url(#clip0_1425_105822)">
<g clip-path="url(#clip1_1425_105822)">
<path d="M17.7676 9.63439C17.4582 9.32457 16.9558 9.32477 16.646 9.63439L11.5979 14.6827L9.35419 12.4391C9.04438 12.1292 8.54217 12.1292 8.23236 12.4391C7.92255 12.7489 7.92255 13.2511 8.23236 13.5609L11.0368 16.3654C11.1916 16.5202 11.3946 16.5978 11.5977 16.5978C11.8007 16.5978 12.0039 16.5204 12.1587 16.3654L17.7676 10.7562C18.0775 10.4466 18.0775 9.94418 17.7676 9.63439Z" fill="black"/>
</g>
</g>
<defs>
<clipPath id="clip0_1425_105822">
<rect width="10" height="10" fill="white" transform="matrix(-1 0 0 1 18 8)"/>
</clipPath>
<clipPath id="clip1_1425_105822">
<rect width="10" height="10" fill="white" transform="translate(8 8)"/>
</clipPath>
</defs>
</svg>
