<svg width="20" height="20" viewBox="0 0 20 20" fill="none" xmlns="http://www.w3.org/2000/svg">
<path d="M2.5 5H4.16667H17.5" stroke="#F73D3F" stroke-linecap="round" stroke-linejoin="round"/>
<path d="M6.66406 4.9974V3.33073C6.66406 2.8887 6.83966 2.46478 7.15222 2.15222C7.46478 1.83966 7.8887 1.66406 8.33073 1.66406H11.6641C12.1061 1.66406 12.53 1.83966 12.8426 2.15222C13.1551 2.46478 13.3307 2.8887 13.3307 3.33073V4.9974M15.8307 4.9974V16.6641C15.8307 17.1061 15.6551 17.53 15.3426 17.8426C15.03 18.1551 14.6061 18.3307 14.1641 18.3307H5.83073C5.3887 18.3307 4.96478 18.1551 4.65222 17.8426C4.33966 17.53 4.16406 17.1061 4.16406 16.6641V4.9974H15.8307Z" stroke="#F73D3F" stroke-linecap="round" stroke-linejoin="round"/>
<path d="M8.33594 9.16406V14.1641" stroke="#F73D3F" stroke-linecap="round" stroke-linejoin="round"/>
<path d="M11.6641 9.16406V14.1641" stroke="#F73D3F" stroke-linecap="round" stroke-linejoin="round"/>
</svg>
