<svg width="16" height="16" viewBox="0 0 16 16" fill="none" xmlns="http://www.w3.org/2000/svg">
<path d="M15 8C15 8.59733 14.2662 9.08967 14.1192 9.64033C13.9675 10.2097 14.3513 11.003 14.0632 11.5012C13.7703 12.0075 12.8895 12.0682 12.4788 12.4788C12.0682 12.8895 12.0075 13.7703 11.5012 14.0632C11.003 14.3513 10.2097 13.9675 9.64033 14.1192C9.08967 14.2662 8.59733 15 8 15C7.40267 15 6.91033 14.2662 6.35967 14.1192C5.79033 13.9675 4.997 14.3513 4.49883 14.0632C3.9925 13.7703 3.93183 12.8895 3.52117 12.4788C3.1105 12.0682 2.22967 12.0075 1.93683 11.5012C1.64867 11.003 2.0325 10.2097 1.88083 9.64033C1.73383 9.08967 1 8.59733 1 8C1 7.40267 1.73383 6.91033 1.88083 6.35967C2.0325 5.79033 1.64867 4.997 1.93683 4.49883C2.22967 3.9925 3.1105 3.93183 3.52117 3.52117C3.93183 3.1105 3.9925 2.22967 4.49883 1.93683C4.997 1.64867 5.79033 2.0325 6.35967 1.88083C6.91033 1.73383 7.40267 1 8 1C8.59733 1 9.08967 1.73383 9.64033 1.88083C10.2097 2.0325 11.003 1.64867 11.5012 1.93683C12.0075 2.22967 12.0682 3.1105 12.4788 3.52117C12.8895 3.93183 13.7703 3.9925 14.0632 4.49883C14.3513 4.997 13.9675 5.79033 14.1192 6.35967C14.2662 6.91033 15 7.40267 15 8Z" fill="#C9EF79"/>
<path d="M10.0232 5.91433L7.35851 8.57899L5.97718 7.19883C5.67735 6.89899 5.19085 6.89899 4.89101 7.19883C4.59118 7.49866 4.59118 7.98516 4.89101 8.28499L6.82885 10.2228C7.12051 10.5145 7.59418 10.5145 7.88585 10.2228L11.1082 7.00049C11.408 6.70066 11.408 6.21416 11.1082 5.91433C10.8083 5.61449 10.323 5.61449 10.0232 5.91433Z" fill="#08080B"/>
</svg>
